<?xml version="1.0" standalone="no"?>
<!DOCTYPE svg PUBLIC "-//W3C//DTD SVG 1.1//EN" "http://www.w3.org/Graphics/SVG/1.1/DTD/svg11.dtd" >
<!--
2013-9-30: Created.
-->
<svg>
<metadata>
Created by iconfont
</metadata>
<defs>

<font id="iconfont" horiz-adv-x="1024" >
  <font-face
    font-family="iconfont"
    font-weight="500"
    font-stretch="normal"
    units-per-em="1024"
    ascent="896"
    descent="-128"
  />
    <missing-glyph />
    
    <glyph glyph-name="tishi" unicode="&#58885;" d="M908.8 592.4c-5.4 10.5-16.3 17.8-28.9 17.8-17.8 0-32.2-14.4-32.2-32.1 0-6 1.7-11.7 4.6-16.5l-0.1-0.1c26.9-52.4 42.1-111.8 42.1-174.7 0-211.6-171.6-383.2-383.2-383.2S127.8 175.2 127.8 386.8 299.4 769.9 511 769.9c62.5 0 121.5-15 173.6-41.5l0.2 0.4c4.6-2.6 10-4.1 15.7-4.1 17.8 0 32.2 14.4 32.2 32.1 0 13.1-7.9 24.4-19.3 29.4C652.6 817.1 583.9 834.5 511 834.5 263.7 834.5 63.2 634 63.2 386.8S263.7-60.9 511-60.9s447.7 200.4 447.7 447.7c0 74.1-18 144-49.9 205.6zM770.7 678.3a32.2 32.1 0 1 1 64.4 0 32.2 32.1 0 1 1-64.4 0ZM482.8 196.4a32.2 32.1 0 1 1 64.4 0 32.2 32.1 0 1 1-64.4 0ZM515 292.5c17.6 0 31.9 14.4 31.9 31.9V580.1c0 17.5-14.3 31.9-31.9 31.9-17.5 0-31.9-14.3-31.9-31.9v-255.7c0-17.5 14.3-31.9 31.9-31.9z"  horiz-adv-x="1024" />

    
    <glyph glyph-name="totop" unicode="&#58900;" d="M556.7760651-25.807254230000012V522.99412248l307.68815778-308.71918561c17.23289347-17.23289347 45.36522383-17.23289347 62.45082763 0 17.23289347 17.23289347 17.23289347 45.36522383 0 62.45082761L550.58989821 654.22923431c-9.13196064 9.13196064-21.35700474 13.40336159-33.28746944 12.81420281-12.0777544 0.58915875-24.15550879-3.68224221-33.28746946-12.81420281l-365.27842571-375.58870388c-17.23289347-17.23289347-17.23289347-45.36522383 0-62.45082763 17.23289347-17.23289347 45.36522383-17.23289347 62.45082762 0l287.21489121 297.52516934v-539.52212637c0-24.30279849 19.88410785-44.18690634 44.18690632-44.18690634s44.18690634 19.88410785 44.18690635 44.18690634zM925.14757425 753.20790449h-815.98487036c-24.45008817 0-44.18690634 19.73681815-44.18690633 44.18690635s19.73681815 44.18690634 44.18690633 44.18690633h815.98487036c24.45008817 0 44.18690634-19.73681815 44.18690634-44.18690633s-19.88410785-44.18690634-44.18690634-44.18690635z"  horiz-adv-x="1024" />

    
    <glyph glyph-name="fapiao" unicode="&#58890;" d="M937.07377778 458.41066667h-106.95111111c-14.10844445 0-25.6 11.49155555-25.6 25.6s11.49155555 25.6 25.6 25.6h106.95111111V769.70666667H86.92622222v-259.98222222h106.95111111c14.10844445 0 25.6-11.49155555 25.6-25.6s-11.49155555-25.6-25.6-25.6h-106.95111111c-28.21688889 0-51.2 22.98311111-51.2 51.2V769.70666667c0 28.21688889 22.98311111 51.2 51.2 51.2h850.14755556c28.21688889 0 51.2-22.98311111 51.2-51.2v-259.98222222c0-28.33066667-22.98311111-51.31377778-51.2-51.31377778zM886.67022222 614.05866667H137.32977778c-14.10844445 0-25.6 11.49155555-25.6 25.6s11.49155555 25.6 25.6 25.6h749.45422222c14.10844445 0 25.6-11.49155555 25.6-25.6s-11.49155555-25.6-25.71377778-25.6zM512-52.90666667000005c-9.89866667 0-19.79733333 2.84444445-28.44444445 8.64711112l-130.61688888 87.15377777-105.01688889-70.08711111c-15.70133333-10.46755555-35.95377778-11.49155555-52.56533333-2.50311111-16.72533333 8.87466667-27.07911111 26.16888889-27.07911112 45.16977778V616.90311111c0 14.10844445 11.49155555 25.6 25.6 25.6s25.6-11.49155555 25.6-25.6V15.360000000000014l119.23911112 79.53066667c8.64711111 5.68888889 19.79733333 5.68888889 28.44444444 0L512-1.7066666700000042l144.83911111 96.59733334c8.64711111 5.68888889 19.79733333 5.68888889 28.44444444 0L804.52266667 15.360000000000014V616.90311111c0 14.10844445 11.49155555 25.6 25.6 25.6s25.6-11.49155555 25.6-25.6V15.360000000000014c0-18.88711111-10.35377778-36.18133333-27.07911112-45.16977778-16.61155555-8.98844445-36.75022222-7.96444445-52.56533333 2.50311111l-105.01688889 70.08711112L540.44444445-44.25955554999996c-8.64711111-5.80266667-18.54577778-8.64711111-28.44444445-8.64711112zM660.48 395.264h-296.96c-14.10844445 0-25.6 11.49155555-25.6 25.6s11.49155555 25.6 25.6 25.6h297.07377778c14.10844445 0 25.6-11.49155555 25.6-25.6s-11.49155555-25.6-25.71377778-25.6zM660.48 248.37688889000003h-296.96c-14.10844445 0-25.6 11.49155555-25.6 25.6s11.49155555 25.6 25.6 25.6h297.07377778c14.10844445 0 25.6-11.49155555 25.6-25.6s-11.49155555-25.6-25.71377778-25.6z"  horiz-adv-x="1024" />

    
    <glyph glyph-name="guanzhu" unicode="&#58896;" d="M948.45090875 78.54545438000002H806.63272719v-141.81818157a32.72727281 32.72727281 0 1 0-65.45454563 0V78.54545438000002h-141.81818156a32.72727281 32.72727281 0 1 0 0 65.45454562H741.17818156v141.81818156a32.72727281 32.72727281 0 0 0 65.45454563 0V144h141.81818156a32.72727281 32.72727281 0 0 0 0-65.45454562zM501.17818156 296.72727281000004c-6.02181844-6.67636406-12.04363594 0-21.81818156 0-163.94181844 0-370.71272719-157.2-370.71272719-343.39636406a32.72727281 32.72727281 0 0 0-32.90181844-32.53090875 32.72727281 32.72727281 0 0 0-32.92363593 32.53090875c0 153.86181844 128.53090875 328.27636406 309.75272718 383.43272719C265.93454563 385.13454563 217.54181844 474.98181844 217.54181844 580.36363594 217.54181844 736.05818156 343.69454563 864 501.17818156 864s283.63636406-127.94181844 283.63636406-283.63636406c0-154.86545438-127.30909125-282.28363594-283.63636406-283.63636313z m0 501.81818157c-120.96 0-218.18181844-98.59636406-218.1818175-218.18181844s97.22181844-218.18181844 218.1818175-218.1818175 218.18181844 98.59636406 218.18181844 218.1818175S622.13818156 798.54545438 501.17818156 798.54545438z"  horiz-adv-x="1024" />

    
    <glyph glyph-name="youhuiquan" unicode="&#59584;" d="M863.95259221 808.7703699900001c73.728 0 133.49925888-59.77125888 133.49926002-133.49925888v-169.90814777a36.40888889 36.40888889 0 0 0-36.40888889-36.40888889 84.95407445 84.95407445 0 0 1 0-169.9081489 36.40888889 36.40888889 0 0 0 36.40888889-36.40888889v-169.90814777c0-73.728-59.77125888-133.49925888-133.49926002-133.49925888H160.04740779c-73.728 0-133.49925888 59.77125888-133.49926002 133.49925888V262.63703666000004a36.40888889 36.40888889 0 0 0 36.40888889 36.40888889 84.95407445 84.95407445 0 0 1 0 169.9081489 36.40888889 36.40888889 0 0 0-36.40888889 36.40888889V675.27111111c0 73.728 59.77125888 133.49925888 133.49926002 133.49925888h703.90518442z m0-72.81777778H160.04740779a60.6814811 60.6814811 0 0 1-60.68148224-60.6814811v-137.72268999C168.94331221 521.11587555 220.72888889 458.60181333 220.72888889 384c0-74.60181333-51.78557667-137.11587555-121.36296334-153.54842112V92.72888889000001a60.6814811 60.6814811 0 0 1 60.68148224-60.6814811h703.90518442a60.6814811 60.6814811 0 0 1 60.68148224 60.6814811V230.45157888000006C855.05668779 246.88412444999994 803.27111111 309.39818667 803.27111111 384c0 74.60181333 51.78557667 137.11587555 121.36296334 153.54842112V675.27111111a60.6814811 60.6814811 0 0 1-60.68148224 60.6814811zM367.33534777 594.01860779a36.40888889 36.40888889 0 0 0 51.27585223-4.66033778L512 477.27957333l93.3888 112.07869668a36.40888889 36.40888889 0 1 0 55.94832555-46.62765113L579.59916999 444.6814811H633.36296334a36.40888889 36.40888889 0 0 0 36.34820665-34.27289998L669.77185223 408.27259221a36.40888889 36.40888889 0 0 0-36.40888889-36.40888888h-78.88592668v-48.54518443H633.36296334a36.40888889 36.40888889 0 0 0 36.34820665-34.27290112L669.77185223 286.90963001a36.40888889 36.40888889 0 0 0-36.40888889-36.40888889h-78.88592668v-48.54518557a36.40888889 36.40888889 0 0 0-34.27289999-36.34820778L518.06814777 165.54666667000004a36.40888889 36.40888889 0 0 0-36.40888889 36.40888888v48.54518557H390.63703666a36.40888889 36.40888889 0 0 0-36.34820665 34.27289998L354.22814777 286.90963001a36.40888889 36.40888889 0 0 0 36.40888889 36.40888889h91.02222222v48.54518443H390.63703666a36.40888889 36.40888889 0 0 0-36.34820665 34.27290112L354.22814777 408.27259221a36.40888889 36.40888889 0 0 0 36.40888889 36.40888889h53.73952l-81.71368221 98.06127445a36.40888889 36.40888889 0 0 0 2.93698333 49.7466789z"  horiz-adv-x="1024" />

    
    <glyph glyph-name="kefu" unicode="&#58883;" d="M184.92869977 556.33333333c44.28444445 139.85111111 175.25777778 241.47555555 329.62666666 241.47555556 154.26444445 0 285.23777778-101.62444445 329.62666667-241.47555556h57.44444444C855.4620331 726.9955555500001 699.4220331 852.95555555 514.45092198 852.95555555c-184.86666667 0-340.90666667-125.96-386.96666666-296.62222222h57.44444445zM163.30869976 178.45333332999996h-1.46222222c-83.13777778 0-150.71333333 67.57555555-150.71333333 150.71333334v86.48c0 83.13777778 67.57555555 150.71333333 150.71333333 150.71333333h1.35777779c40.52444445 0 73.42444445-32.9 73.42444443-73.42444445v-241.16222222c0-40.42-32.9-73.32-73.32-73.32z m-1.46222222 329.73111112c-50.96888889 0-92.43333333-41.46444445-92.43333334-92.43333334v-86.48c0-50.96888889 41.46444445-92.43333333 92.43333334-92.43333333h1.46222222c8.25111111 0 15.04 6.78888889 15.04000001 15.04V493.04c0 8.35555555-6.78888889 15.14444445-15.14444444 15.14444445h-1.35777779zM863.50425532 178.45333332999996h-1.46222221c-40.42 0-73.32 32.9-73.32 73.32v241.26666667c0 40.52444445 32.9 73.42444445 73.42444443 73.42444445h1.35777778c83.13777778 0 150.71333333-67.57555555 150.71333333-150.71333334v-86.48c0.10444445-83.13777778-67.57555555-150.81777778-150.71333333-150.81777778z m-1.35777778 329.73111112c-8.35555555 0-15.14444445-6.78888889-15.14444444-15.14444445v-241.16222222c0-8.25111111 6.78888889-15.04 15.04000001-15.04h1.46222221c50.96888889 0 92.43333333 41.46444445 92.43333333 92.43333333v86.48c0 50.96888889-41.46444445 92.43333333-92.43333333 92.43333334h-1.35777778zM565.0020331 22.100000000000023h-5.32666667c-16.08444445 0.20888889-28.93111111 13.47333333-28.72222223 29.55777778 0.20888889 15.98 13.26444445 28.72222222 29.14 28.72222222h0.41777779c172.75111111-2.50666667 276.67333333 142.46222222 277.71777778 143.92444445 9.29555555 13.16 27.46888889 16.29333333 40.62888888 7.10222222 13.16-9.19111111 16.39777778-27.36444445 7.20666667-40.52444445-5.01333333-6.89333333-120.42444445-168.78222222-321.06222222-168.78222222z"  horiz-adv-x="1024" />

    
    <glyph glyph-name="help" unicode="&#58884;" d="M484.08651852 790.56592592v-317.36414814l-22.69487407 22.69487407-54.97742223 54.97742223-54.97742222-54.97742223-22.69487408-22.69487407V790.56592592h155.3445926m77.6722963 77.6722963H251.06962963v-488.85001481c0-23.42305185 19.17534815-38.95751111 39.07887407-38.95751111 9.58767408 0 19.29671111 3.51952592 27.18530371 11.40811852L406.41422222 441.04059259l89.08041481-89.08041481c7.88859259-7.88859259 17.59762963-11.40811852 27.18530372-11.40811853 19.90352592 0 39.07887408 15.53445925 39.07887407 38.95751112V868.23822222zM833.61185185 790.56592592c20.99579259 0 38.83614815-17.84035555 38.83614815-38.83614814v-737.88681481c0-20.99579259-17.84035555-38.83614815-38.83614815-38.83614815H192.81540741c-20.99579259 0-38.83614815 17.84035555-38.83614816 38.83614815V751.72977778c0 20.99579259 17.84035555 38.83614815 38.83614816 38.83614814h640.79644444m0 77.6722963H192.81540741c-64.07964445 0-116.50844445-52.4288-116.50844444-116.50844444v-737.88681481c0-64.07964445 52.4288-116.50844445 116.50844444-116.50844445h640.79644444c64.07964445 0 116.50844445 52.4288 116.50844445 116.50844445V751.72977778c0 64.07964445-52.4288 116.50844445-116.50844445 116.50844444z"  horiz-adv-x="1024" />

    
    <glyph glyph-name="anquan1" unicode="&#60493;" d="M867.584 735.808c-149.632 16.928-262.208 57.408-334.592 120.352l-19.04 16.544-20.544-14.656C379.968 777.056 267.776 736 160 736H128v-448c0-137.344 121.088-261.92 370.208-380.864l13.088-6.24 13.344 5.728C771.072 12.48 896 140.768 896 288V732.576l-28.416 3.232zM832 288c0-116.8-107.392-223.36-319.328-316.8C299.872 74.976 192 181.536 192 288V673.024c104.672 6.784 211.584 46.688 318.496 118.944C587.232 733.472 695.168 694.464 832 675.744V288zM359.776 427.328a32 32 0 1 1-47.968-42.4l121.792-137.824c12.608-14.24 30.176-21.568 47.904-21.568a64.384 64.384 0 0 1 49.696 23.52l197.6 242.72a32 32 0 0 1-49.632 40.416l-197.6-242.688-121.792 137.824z"  horiz-adv-x="1024" />

    
    <glyph glyph-name="youjian" unicode="&#58965;" d="M868.72964539-53.139063830000055H156.43234043c-62.74723404 0-113.75841135 55.77531915-113.75841136 124.21628369V486.83574468c0 12.66564539 8.25009929 27.77146099 19.05656738 34.51097872 15.1058156 9.52828369 123.5190922 80.40941844 123.5190922 80.40941844l40.32090781-61.58524823s-74.71568794-48.80340426-109.34286525-71.2297305v-397.74774467c0-27.42286524 18.35937589-50.66258156 40.20470922-50.66258156h712.29730496c21.84533333 0 40.20470922 23.23971631 40.20470922 50.66258156v392.75120567L796.45412766 532.73418439c-17.31358865 10.57407092-22.77492199 33.23279433-12.20085107 50.54638299 10.57407092 17.31358865 33.23279433 22.77492199 50.54638299 12.20085105l130.14241134-79.59602836c10.92266667-6.73951773 17.66218439-18.59177306 17.6621844-31.37361702v-413.31835461c-0.11619858-68.55716312-51.12737588-124.33248227-113.87460993-124.33248227zM494.33781561 131.03568795c-7.90150355 0-15.91920567 2.55636879-22.42632624 7.66910638L57.54734752 458.3670922c-16.15160284 12.43324822-19.05656737 35.55676596-6.62331915 51.59217021 12.43324822 16.15160284 35.55676596 19.05656737 51.59217021 6.62331916l392.86740426-303.04590072 423.19523405 297.23597163c16.61639716 11.73605673 39.62371631 7.66910638 51.24357446-8.94729077 11.73605673-16.61639716 7.66910638-39.62371631-8.94729079-51.24357447L515.48595744 137.65900709000005c-6.39092199-4.41554609-13.8276312-6.62331915-21.14814183-6.62331914zM807.26059574 361.45747517999996c-20.33475177 0-36.83495035 16.50019859-36.83495035 36.83495036V742.93741843c-0.46479433 1.04578723-4.53174468 4.53174468-11.27126241 4.53174469H265.89140426c-6.73951773 0-10.92266667-3.48595744-11.38746099-4.88034043v-336.74348936c0-20.33475177-16.50019859-36.83495035-36.83495036-36.83495035S180.83404255 385.51058156 180.83404255 405.84533333v336.97588653c0 43.10967375 38.11313475 78.2016454 84.94116312 78.20164539h493.26297872c46.82802837 0 84.94116311-35.09197163 84.94116313-78.20164539v-344.76119149c0.11619858-20.1023546-16.384-36.60255319-36.71875178-36.60255319zM656.55103546 592.80885107H368.61095035c-20.33475177 0-36.83495035 16.50019859-36.83495035 36.83495035s16.50019859 36.83495035 36.83495035 36.83495036h287.82388653c20.33475177 0 36.83495035-16.50019859 36.83495035-36.83495036s-16.50019859-36.83495035-36.71875177-36.83495035zM656.55103546 467.77917731H368.61095035c-20.33475177 0-36.83495035 16.50019859-36.83495035 36.83495035s16.50019859 36.83495035 36.83495035 36.83495036h287.82388653c20.33475177 0 36.83495035-16.50019859 36.83495035-36.83495036 0-20.45095036-16.50019859-36.83495035-36.71875177-36.83495035z"  horiz-adv-x="1024" />

    
    <glyph glyph-name="shezhi" unicode="&#58894;" d="M655.90098969-69.25601156000005h-0.01131469c-17.45968875 0-34.432815 7.21923655-45.39179625 19.3154175-14.94200812 16.37906625-62.26874156 58.96463906-101.00707219 58.96463906-38.46676125 0-86.52333844-42.82885406-100.32814781-57.83875499-10.93635094-11.89250343-27.790665-18.98726999-45.08628-18.98727001-8.23762406 0-16.011315 1.57850062-23.10608156 4.70155594l-1.23903844 0.54313969-117.75388969 65.85007125-1.17114563 0.82036687c-21.43705781 15.00424311-29.59547344 44.35643531-18.97595437 68.26591313 0.0792075 0.18670406 10.8571425 25.05799125 10.8571425 47.73974531 0 68.8203675-55.988685 124.81471031-124.81471031 124.81470937h-4.17538875l-0.75813281-0.01131468c-19.71145687 0-35.76237655 17.51626594-40.89391781 44.62234781-0.407355 2.16690281-10.04809031 53.57850094-10.04809032 94.08203625 0 40.50353625 9.6350775 91.91513438 10.0424325 94.08203719 5.19377625 27.45120188 21.59547375 45.08062219 41.65770844 44.60537437h4.17538875c68.82602531 0 124.81471031 55.99434187 124.81471031 124.82036813 0 22.67043844-10.77227719 47.53606781-10.88543156 47.78500687-10.60820343 23.89250343-2.39886844 53.23903781 19.12871344 68.19802031l1.222065 0.84299813 124.27156969 68.25459656 1.29561562 0.54879844c6.99292781 2.98161281 14.65912313 4.49787844 22.777935 4.49787844 17.25035344 0 34.14427125-6.94766625 45.18246094-18.57991594 14.7100425-15.4002825 61.19943469-55.45120219 98.82885375-55.45120219 37.27298438 0 83.47383281 39.25884 98.13861375 54.38755313 10.97029687 11.39462531 27.73974562 18.21782156 44.83168406 18.2178225 8.28288562 0 16.09052343-1.567185 23.19660469-4.65629438l1.26166969-0.54879844 120.02828812-66.68175375 1.18246125-0.82602468c21.47100469-14.98726969 29.64639281-44.33946281 19.02121594-68.27157094-0.08486531-0.18104625-10.8571425-25.05233344-10.8571425-47.7340875 0-68.82602531 55.988685-124.82036813 124.81471031-124.82036718h4.17538875c20.03394656 0.44695875 36.45261657-17.1541725 41.64639281-44.60537532 0.407355-2.16690281 10.04809031-53.57850094 10.04809125-94.08769407 0-40.50353625-9.64073531-91.92079219-10.04809125-94.08203717-5.19377625-27.45120188-21.61244719-45.01838719-41.65205062-44.6110322h-4.16973094c-68.8203675 0-124.81471031-55.988685-124.81471031-124.81471031 0-22.67609625 10.77227719-47.53606781 10.87977375-47.78500688 10.60254562-23.87552999 2.41584187-53.22206531-19.07779313-68.20367719l-1.20509251-0.83168343-122.04809061-67.46251782-1.27298438-0.5487975c-6.98726999-2.99858531-14.61951937-4.52050875-22.68741187-4.52050968z m-3.71145656 57.49929281c0.5487975-0.35643562 2.08769437-0.96746812 3.70579968-0.96746812l0.18104625 0.00565781 114.03111749 63.02687437c-2.74964625 6.39886875-15.34370625 37.4257425-15.34370624 69.79915126 0 96.80339437 76.25459719 176.1471 171.84724219 181.10891062 1.37482313 7.5983025 8.84299875 50.33097563 8.84299875 82.39886906 0 32.06223469-7.46817562 74.78359219-8.84299875 82.39886813-95.592645 4.96746844-171.84724219 84.29985844-171.84724219 181.10891062 0 32.4130125 12.62800594 63.49080656 15.36067968 69.83309813l-112.18104749 62.32531781c-0.12446999 0.00565781-0.28854281 0.01697344-0.46393125 0.01697344-1.91230594 0-3.70014187-0.69589781-4.29420094-1.09759594-1.88401687-1.93493625-18.14427188-18.42149906-41.49929344-34.8571425-34.5742575-24.32248969-67.27581375-36.65629406-97.17680343-36.65629406-30.20084906 0-63.16265906 12.57708656-97.95756656 37.38048093-23.49646406 16.7468175-39.83592656 33.55586999-41.72560125 35.52475219-0.59405906 0.407355-2.40452625 1.12588406-4.33380469 1.12588406l-0.40169719-0.01131562-116.1923625-63.81895313c2.78359219-6.47807625 15.32673281-37.45403156 15.32673281-69.76520531 0-96.80905219-76.25459719-176.14144311-171.84724218-181.10891062-1.38048094-7.60396031-8.84299875-50.33097563-8.84299876-82.39886813 0-32.06223469 7.46817562-74.78359219 8.84865657-82.40452687 95.592645-4.96181063 171.84724219-84.29420063 171.84724218-181.10325281 0-32.48090531-12.6732675-63.61527563-15.37199437-69.8783597l109.97454-61.49363437 0.24328125-0.00565781c1.60678969 0 3.12871312 0.58840125 3.67185281 0.93917906 2.05374844 2.21216437 18.48373406 19.59264469 42.13861406 36.92786437 35.2644975 25.84441313 68.78076375 38.95332375 99.60396094 38.95332375 31.11739781 0 64.88826-13.35219281 100.36209281-39.69448312 23.79066469-17.66336625 40.28288531-35.37765187 42.33663375-37.6124475zM509.89816156 218.01980156000002c-91.65487969 0-166.22347969 74.5686-166.22347969 166.22347969s74.5686 166.22347969 166.22347969 166.22347969c91.6605375 0 166.22347969-74.5686 166.22347875-166.22347969s-74.56294219-166.22347969-166.22347875-166.22347969z m0 275.90947688c-60.48090563 0-109.68599719-49.20509156-109.68599718-109.68599719 0-60.47524781 49.20509156-109.68599719 109.68599718-109.68599719s109.68599719 49.20509156 109.68599719 109.68599719c0 60.48090563-49.19943469 109.68599719-109.68599719 109.68599719z"  horiz-adv-x="1024" />

    
    <glyph glyph-name="xiaoxi" unicode="&#59018;" d="M926.08796445 237.06588445c9.02511408-6.64990814 16.70776889-13.99054222 23.26632296-22.64244149 15.82876445-20.88109037 24.26007704-48.43214222 24.29238518-85.1520237 0-21.63977481-9.49413926-46.06919111-27.88193185-64.88367407-23.23067259-23.7676563-58.54793481-37.24015408-105.8771437-37.24015408H687.78640592C670.35671704-55.52450369999997 597.25340445-115.20210963 512.15262814-115.10518519000004c-85.08963555-0.08689778-158.15061333 59.60296296-175.52237036 142.2527763H184.46445037c-47.30024296 0-82.59856592 13.47249778-105.82032592 37.24238222C60.26524445 83.20445629999995 50.77333333 107.63498666999999 50.77333333 129.27141926000002c0 33.7152237 6.74683259 59.94832592 19.83051853 80.66341926 10.27176296 16.26213926 23.75651555 28.47796148 42.30027851 39.91950222 16.84702814 127.5949037 30.18806519 224.14724741 35.50108444 250.68226371 1.02272 68.78627555 30.42202074 130.71208296 82.59745186 181.74336 45.49989926 44.50280296 106.94442667 79.04355555 173.71088592 99.26845629v0.75757037c0 55.71038814 48.3430163 100.79919408 107.56273778 100.79919408 59.25425778 0 107.62846814-45.05426963 107.62846815-100.79808v-4.61226667c62.25223111-21.07493926 120.25761186-54.46373926 163.68199111-96.59356444 52.02725926-50.47758222 81.39425186-111.34279111 82.41362963-180.14912 3.22524445-15.7362963 10.57256296-60.59226074 21.04485926-127.46789927l1.08510815-6.94068148c3.35002074-21.44369778 6.86603852-44.14518519 10.63940741-68.65147259a52846.80222814 52846.80222814 0 0 0 7.39410962-48.16476444c8.34218667-4.74484148 13.94597926-8.25751704 19.92410075-12.66145185z m-413.95650371-285.99618371h0.03342222c48.77750519-0.12254814 91.7696237 30.77406814 107.6607763 76.07789037H404.53307259c15.90006519-45.2704 58.84984889-76.15364741 107.59727408-76.07789037z m-393.66921482 171.08835556c1.50511408-4.16775111 3.9661037-8.17953186 7.61692445-11.8604326 10.49234963-10.57924741 29.13637926-17.04199111 58.31954963-17.04199111h655.42314667c30.68939852 0 49.67099259 7.15235555 59.85140147 18.64402963 3.38567111 3.82127408 5.55365926 7.89655704 6.76465778 11.98409482 0.42446222 1.43269926 0.69852445 2.7629037 0.85003853 3.95162074 0.08912592 0.69184 0.11697778 1.1686637 0.11697777 1.37031111 0 19.43502222-2.7629037 32.38056296-8.2162963 41.52599703-4.48971852 7.52779852-10.71516445 12.79625481-22.38174814 19.62998519-2.20141037 1.29121186-4.01289481 2.31616-8.45582223 4.80388741l-22.79395555 13.11376593-0.59602963 3.9104-1.79143111 11.74679703c-19.45284741 128.31905186-39.21206519 253.45742222-42.20001185 264.81095111l-0.12811852 0.48796445-1.00489481 7.4163911v0.55369482c0 55.27367111-25.56688592 104.35754667-71.78870519 145.30199704-40.0064 35.4386963-94.12589037 63.15685926-150.23288889 78.97002667l-24.01832296 6.79919407v54.03036445c0 18.78328889-18.36105481 34.62319408-41.4546963 34.62319407-23.09252741 0-41.4546963-15.83990519-41.45469629-34.62319407v-51.94370371l-6.26332445-1.53296593-18.97268148-4.64346074c-60.50759111-14.77039408-117.66181926-43.22607408-159.46076444-80.64782222-46.13603555-41.3042963-71.62270814-91.32176592-71.62270816-146.6656237v-0.57263408l-1.0739674-7.67262814-0.12143407-0.46345481c-3.12274963-11.95401481-20.11794963-134.25038222-37.07415704-263.2735289l-2.20586667-16.77015704-3.70318222-1.99419259-11.1986726-6.02936888c-17.01525333-9.18888296-25.25940148-15.22159408-31.36786962-23.88352-7.30275555-10.35420445-10.91792592-24.74581333-10.94020741-46.79668149 0.11363555-2.00087704 0.57931852-4.49083259 1.57975703-7.25930666z"  horiz-adv-x="1024" />

    
    <glyph glyph-name="fankui" unicode="&#58902;" d="M789.361778-113.777778H149.333333a106.666667 106.666667 0 0 0-106.666666 106.638222V703.857778a106.666667 106.666667 0 0 0 106.666666 106.666666h497.692445c19.683556 0 35.555556-15.900444 35.555555-35.555555 0-19.712-15.872-35.555556-35.555555-35.555556H149.304889c-19.512889 0-35.555556-16.071111-35.555556-35.555555v-710.997334c0-19.683556 16.042667-35.555556 35.555556-35.555555h639.886222c19.683556 0 35.555556 15.872 35.555556 35.555555V561.834667c0 19.683556 15.843556 35.555556 35.555555 35.555555 19.655111 0 35.555556-15.872 35.555556-35.555555v-568.775111A106.666667 106.666667 0 0 0 789.333333-113.777778z m-208.896 568.974222c-9.159111 0-18.147556 3.413333-25.230222 10.524445a35.413333 35.413333 0 0 0 0 50.261333L908.629333 869.176889c13.937778 13.937778 36.323556 13.937778 50.261334 0 13.966222-13.937778 13.966222-36.323556 0-50.261333L605.525333 465.521778a35.470222 35.470222 0 0 0-25.031111-10.325334z m-146.773334 0H220.387556c-19.683556 0-35.555556 15.872-35.555556 35.555556s15.872 35.555556 35.555556 35.555556h213.304888c19.683556 0 35.555556-15.872 35.555556-35.555556s-15.872-35.555556-35.555556-35.555556z m213.475556-213.304888H220.387556c-19.683556 0-35.555556 15.872-35.555556 35.555555s15.872 35.555556 35.555556 35.555556h426.609777c19.683556 0 35.555556-15.872 35.555556-35.555556s-15.872-35.555556-35.384889-35.555555z"  horiz-adv-x="1024" />

    
    <glyph glyph-name="weizhi" unicode="&#59366;" d="M512 896C294.208 896 117.034667 718.848 117.056 501.077333c0-80.896 24.298667-158.677333 69.781333-224.149333 2.282667-3.925333 4.586667-7.722667 7.296-11.413333l288.277333-379.989333C490.24-123.2 500.757333-128 512.021333-128c11.114667 0 21.696 4.842667 30.848 15.104l286.954667 378.474667c2.837333 3.754667 5.248 7.872 6.570667 10.282667 46.144 66.389333 70.570667 144.256 70.570667 225.173333C906.965333 718.848 729.792 896 512 896zM512 359.829333c-77.781333 0-141.077333 63.296-141.077333 141.098667 0 77.781333 63.296 141.056 141.077333 141.056 77.781333 0 141.077333-63.296 141.077333-141.056C653.077333 423.125333 589.781333 359.829333 512 359.829333z"  horiz-adv-x="1024" />

    
    <glyph glyph-name="guanbi" unicode="&#58980;" d="M512-96c-264.654 0-480 215.346-480 480s215.346 480 480 480c264.676 0 480-215.346 480-480s-215.302-480-480-480zM512 822.262c-241.658 0-438.24-196.582-438.24-438.262 0-241.658 196.604-438.262 438.262-438.262 241.68 0 438.262 196.626 438.262 438.262 0 241.68-196.604 438.262-438.284 438.262zM657.026 215.084c-5.346 0-10.691 2.029-14.771 6.087l-288.982 289.026c-8.16 8.16-8.16 21.36 0 29.52s21.36 8.16 29.52 0l288.982-289.026c8.16-8.138 8.16-21.36 0-29.52-4.058-4.058-9.382-6.087-14.749-6.087zM363.92 215.062c-5.346 0-10.669 2.051-14.749 6.087-8.16 8.16-8.16 21.36 0 29.52l296.138 296.138c8.16 8.16 21.36 8.16 29.52 0 8.138-8.16 8.138-21.36 0-29.52l-296.138-296.138c-4.08-4.036-9.426-6.087-14.771-6.087z"  horiz-adv-x="1024" />

    
    <glyph glyph-name="you" unicode="&#59197;" d="M512 864C246.4 864 32 649.6 32 384s214.4-480 480-480 480 214.4 480 480S777.6 864 512 864z m192-518.4L454.4 96c-12.8-12.8-32-12.8-44.8 0-12.8 12.8-12.8 32 0 44.8l227.2 227.2-227.2 227.2c-12.8 12.8-12.8 32 0 44.8 12.8 12.8 32 12.8 44.8 0l249.6-249.6c12.8-12.8 12.8-32 0-44.8z"  horiz-adv-x="1024" />

    
    <glyph glyph-name="dingwei" unicode="&#58905;" d="M512 530.285714c-80.786286 0-146.285714-65.499429-146.285714-146.285714s65.499429-146.285714 146.285714-146.285714 146.285714 65.499429 146.285714 146.285714S592.786286 530.285714 512 530.285714zM512 310.85714299999995c-40.321829 0-73.142857 32.821029-73.142857 73.142857s32.821029 73.142857 73.142857 73.142857 73.142857-32.821029 73.142857-73.142857S552.321829 310.85714299999995 512 310.85714299999995zM1024 420.571429l-75.000686 0C931.392 633.678629 761.678629 803.392 548.571429 820.999314L548.571429 896l-73.142857 0 0-75.000686C262.357943 803.392 92.642743 633.678629 75.000686 420.571429L0 420.571429l0-73.142857 75.000686 0C92.642743 134.321371 262.357943-35.39200000000005 475.428571-52.99931400000003L475.428571-128l73.142857 0 0 75.000686C761.678629-35.39200000000005 931.392 134.321371 948.999314 347.42857100000003L1024 347.42857100000003 1024 420.571429zM548.571429 20.143543000000022L548.571429 91.42857100000003l-73.142857 0 0-71.285029C302.928457 37.35771399999999 165.357714 174.92845699999998 148.143543 347.42857100000003L219.428571 347.42857100000003l0 73.142857L148.143543 420.571429C165.357714 593.071543 302.928457 730.642286 475.428571 747.856457L475.428571 676.571429l73.142857 0L548.571429 747.856457C721.071543 730.642286 858.642286 593.071543 875.856457 420.571429L804.571429 420.571429l0-73.142857 71.285029 0C858.642286 174.92845699999998 721.071543 37.35771399999999 548.571429 20.143543000000022z"  horiz-adv-x="1024" />

    
    <glyph glyph-name="aixin" unicode="&#58945;" d="M1024.549 535.391c0 170.492-133.815 309.265-298.055 309.265-81.129 0-157.91-34.998-213.344-94.701-55.509 59.702-132.367 94.701-213.344 94.701C135.49 844.656 1.751 705.959 1.751 535.391c0-5.719 0.534-10.827 0.991-15.021-0.076-1.373-0.152-2.745-0.152-4.194 0-30.193 7.319-63.361 21.73-98.59 0.458-1.295 0.915-2.516 1.449-3.657 90.812-217.844 440.412-468.474 455.279-479.985 9.227-7.092 20.205-10.6 31.263-10.6 11.209 0 22.266 3.659 31.566 10.903 12.733 9.911 310.941 224.551 429.279 427.603 4.498 6.861 7.854 13.494 10.828 19.215 0.914 1.829 1.753 3.658 2.744 5.413l0.382 0.839c0.382 0.686 0.839 1.449 1.296 2.059 7.091 13.802 12.732 26.611 17.232 39.116 12.274 32.177 18.3 60.847 18.3 87.61 0 2.058-0.077 3.888-0.229 5.414C1024.093 525.021 1024.549 529.749 1024.549 535.391z"  horiz-adv-x="1025" />

    
    <glyph glyph-name="zan" unicode="&#58909;" d="M581.44285583 793.26946988c23.4640384 0 43.71462258-17.4923685 49.25084444-42.53984882l3.33919801-14.42910891c3.7106085-21.46377955 5.5862875-43.16856775 5.5862875-64.71966947 0-53.19780579-5.07050439-94.19496221-15.50142464-125.33403421l-27.28408974-81.45757525 85.90518158-0.3597676c82.9141083-0.34812473 209.01541205-0.94191502 221.17065273-1.17593771 21.721088-0.92794311 30.27865714-8.33984512 37.68008021-20.76287317 7.55394674-12.71759531 8.84165632-25.42354659 8.45161813-34.35136115-5.63169507-34.95213739-75.19366713-348.60390969-86.8715463-395.84867442-4.30556274-7.45614563-10.11539513-13.73635357-16.89159226-18.25498225-11.69185109-7.74023395-12.45795669-7.74023395-17.77179989-7.74023396l-503.2502363-0.02794268 0.70090525 456.53289756C447.60597504 480.84719276 536.10287787 593.40891023 539.60507733 723.9450146300001l0.09081515 3.41138432-0.18512327 2.25989632 0.03027172 1.33544619 0.08732216 5.3382929C539.62836309 763.73246978 552.71503986 793.26946988 581.44285583 793.26946988M164.20724509 428.57849516l0-442.55437141-83.44153316 0L80.76571193 428.57849516 164.20724509 428.57849516M581.44285583 855.3648185c-62.34567111 0-103.9110053-54.03493376-103.9110053-119.07478414 0-3.66170795-0.29223822-7.17089337 0-10.68007879-3.26351872-121.62226062-99.31786126-219.39626667-213.59458418-232.80545337l-0.8720566-568.63588239 11.15394616 0c-0.01513586 0.01862883 0.11759389 0.03027171 0.51927609 0.03027173 0.41681806 0 0.54605483-0.01164288 0.53091897-0.03027173l553.2415727 0.03027173c0.11759389 0 0.23169479 0 0.34812472 0 20.88279609 0 32.67710521 5.46869362 51.69586518 18.05938005 18.13156637 12.09004032 31.84347022 28.62186496 40.77710563 47.31112902 2.47529131 3.75252309 88.36068011 389.61853213 90.55537607 412.51322994 1.71733561 24.41876025-3.58137173 49.67930539-16.91138616 72.11992861-21.01552583 35.28163328-51.55149255 49.53143979-88.48991688 51.0927599-1.9175936 0.29922418-223.48643555 1.22833123-223.48643555 1.22833123 14.67128149 43.80077966 18.71487886 96.00544199 18.71487886 145.0560273 0 31.82833437-3.46377785 62.78926791-9.83945785 92.61268537l-0.5495478-0.06054342C679.77572352 816.39237064 635.00741405 855.3648185 581.44285583 855.3648185L581.44285583 855.3648185zM182.64152861 490.67384378L62.33142841 490.67384378c-24.13117895 0-43.66106397-20.15860509-43.66106396-45.00233216l0-476.74389504c0-24.84023523 19.52988501-44.99883918 43.66106396-44.99883918l120.3101002 0c24.13117895 0 43.66106397 20.15860509 43.66106396 44.99883918L226.30259371 445.67034653C226.30259371 470.51407475 206.77270756 490.67384378 182.64152861 490.67384378L182.64152861 490.67384378zM275.27400789-75.83254298999998l-1.05019392 0c0.01164288-0.01513586 0.10245803-0.03376469 0.2235449-0.06054344-0.08732217-0.03376469-0.08382919-0.04890055 0-0.04890054 0.06054343 0 0.16300146 0.0081499 0.2957312 0.01862883 0.14437262-0.01164288 0.25381661-0.01862883 0.31436003-0.01862883 0.09430813 0 0.10245803 0.01513586 0 0.04890054C275.17504285-75.86630768999999 275.26236501-75.84767884999997 275.27400789-75.83254298999998L275.27400789-75.83254298999998z"  horiz-adv-x="1024" />

    
    <glyph glyph-name="arrowup" unicode="&#59177;" d="M932.266667 206.93333299999995l-405.333333 384C522.666667 595.2 518.4 597.333333 512 597.333333c-6.4 0-10.666667-2.133333-14.933333-6.4l-405.333333-384C87.466667 202.66666699999996 85.333333 198.39999999999998 85.333333 192c0-12.8 8.533333-21.333333 21.333333-21.333333 6.4 0 10.666667 2.133333 14.933333 6.4L512 546.133333l390.4-369.066667c4.266667-4.266667 8.533333-6.4 14.933333-6.4 12.8 0 21.333333 8.533333 21.333333 21.333333C938.666667 198.39999999999998 936.533333 202.66666699999996 932.266667 206.93333299999995z"  horiz-adv-x="1024" />

    
    <glyph glyph-name="collect" unicode="&#58921;" d="M963.5334796 539.50737537l-283.94343419 40.93085994-127.90065698 258.36330227c-7.67536402 15.34940371-25.58145622 25.5801319-43.48754843 25.58013192s-33.25549593-10.23072819-43.48754842-28.13682041l-122.78728129-260.92528931-283.94343419-40.9255614c-17.9060922-2.55668849-33.25549593-15.34940371-38.37019722-33.25549592-5.11735122-17.9060922 0-35.81218442 12.788741-48.60224973L239.60648523 250.44923988999994 201.23363808-36.050882789999946c-2.55668849-17.90476789 5.11735122-35.81218442 17.90476791-46.04821116 7.67536402-5.11205267 17.9060922-10.23072819 28.13814471-10.23072819 7.6740397 0 15.34940371 2.56198704 23.02344343 5.11867553L513.31389268 48.36487566000005l240.45721005-133.0206581c7.6740397-2.55536418 15.34940371-5.11205267 23.02344343-5.11205267 25.58145622 0 46.04556123 20.46145638 46.04556124 48.60092543l0 10.23072819-38.36887291 283.94343418 204.64370133 204.64370134c12.78741669 12.79271523 17.9060922 30.69880745 12.78741668 48.60489965C994.23228703 524.16327019 981.4395718 536.95068687 963.5334796 539.50737537L963.5334796 539.50737537zM303.55681436 255.56394118000003c2.55668849 15.34940371-2.56066272 33.25549593-15.34940371 43.48754843L91.23774772 478.11903327l276.26939447 38.37019722c15.34940371 2.55668849 30.6935089 12.78741669 38.36887292 28.13682039l102.32450058 237.90052159 112.55257886-232.78184606c7.6740397-15.34940371 20.46675493-25.58145622 38.37284715-28.14344326l268.59403046-43.48224988L735.86501053 293.93811263c-12.78741669-10.23205251-17.9060922-28.13682041-12.78741669-43.48754842l30.69350889-266.03734199-217.43244232 127.90198258c-12.78874099 7.6740397-30.69483321 5.11735122-46.04556124-2.5566885l-222.54979355-122.78728128L303.55681436 255.56394118000003 303.55681436 255.56394118000003zM510.75852849 817.70422082L374.75462637 555.41183178 59.47387446 491.82579737 285.11553931 263.97584311 239.63430356-46.006071099999986 523.12203826 86.46483285 772.16733691-32.758980709999946 743.02373855 256.02758912 949.67834846 475.92928941 652.94352335 528.9176509900001Z"  horiz-adv-x="1024" />

    
    <glyph glyph-name="zan1" unicode="&#58926;" d="M18.92506526-64.24921700000004l179.29945904 0L198.22452543 473.65029781 18.92506526 473.65029781 18.92506526-64.24921700000004zM1005.07493474 428.82571773c0 49.53134899-40.11781225 89.65029781-89.6502978 89.65029781L632.3545733 518.4760155399999 675.16229189 723.32504304c0.89701504 4.48279875 1.56892335 9.18956769 1.56892335 14.12030566 0 18.60196787-7.62064433 35.41217988-19.72295197 47.51448752l-47.73845657 47.29051846L314.09743541 537.0779834c-16.13716714-16.36113733-26.2226122-38.77399564-26.22261219-63.42768559l0-448.24921701c0-49.53134899 40.11781225-89.65029781 89.6502978-89.6502978l403.42463582 0c37.20507229 0 69.03033189 22.63682849 82.47759159 54.68605604l135.1467873 316.01630626c4.03372294 10.30941522 6.49966134 21.29187421 6.49966134 32.72227352L1005.07379707 425.01482618l-0.44793924 0.44793924L1005.07493474 428.82571773z"  horiz-adv-x="1024" />

    
    <glyph glyph-name="shijian" unicode="&#58912;" d="M510.119675-22.519644c-108.830661 0-211.158211 42.36897-288.13642 119.30113-76.961836 77.009931-119.336946 179.37432-119.317503 288.237727 0 108.877733 42.396599 211.230865 119.380948 288.206004 76.964906 76.958766 179.298596 119.342062 288.150746 119.342062 108.854197 0 211.206306-42.380226 288.209074-119.333876 158.872381-158.924569 158.872381-417.483346-0.002047-576.371076C721.367937 19.877979 618.988198-22.519644 510.119675-22.519644zM510.197446 744.873024c-96.123244 0-186.487322-37.418214-254.44611-105.362676-67.967998-67.941392-105.400538-158.320818-105.400538-254.490112-0.014326-96.16213 37.397748-186.54872 105.343233-254.506485C323.676355 62.55701 414.033269 25.132656 510.119675 25.132656c96.140641 0 186.54565 37.453007 254.561743 105.458867 140.297326 140.285047 140.297326 368.582613 0 508.913709C696.709327 707.452763 606.331947 744.873024 510.197446 744.873024zM676.031379 223.537402c-4.994758 0-9.971096 1.411139-14.789844 4.193509l-141.0382 85.48393c-0.785899 0.453325-1.585101 0.899486-2.426259 1.367137-4.235464 2.358721-10.033517 5.588275-12.053524 8.630564l-0.3776 0.569982-0.593518 0.341784c-20.308535 11.650341-24.571628 20.946055-24.571628 26.693965L480.180805 590.244294c0 17.261129 14.038738 31.30396 31.29475 31.30396 17.264199 0 31.309076-14.042831 31.309076-31.30396l0-225.432309 141.876288-82.048691 0-0.004093 1.453095-0.841158c7.471159-4.303003 13.403265-11.31265 16.274662-19.228947 2.977821-8.206916 2.408863-16.550954-1.602498-23.500227-5.741771-9.945513-14.764262-15.651468-24.75173-15.651468C676.033425 223.537402 676.033425 223.537402 676.031379 223.537402z"  horiz-adv-x="1024" />

    
    <glyph glyph-name="haoyou" unicode="&#58916;" d="M275.43324444 588.04906667c0 54.6816 53.72586667 99.19146667 119.73973333 99.19146666 8.32853333 0 15.01866667 5.66613333 15.01866667 12.4928 0 6.89493333-6.7584 12.4928-15.01866667 12.4928-82.5344 0-149.7088-55.7056-149.7088-124.1088 0-6.89493333 6.7584-12.4928 15.08693333-12.4928C268.7431111 575.55626667 275.43324444 581.1541333299999 275.43324444 588.04906667zM255.0215111 549.00053333C252.1543111 546.67946667 250.65244444 543.47093333 250.65244444 540.2624000000001c0-3.20853333 1.50186667-6.48533333 4.3008-8.8064C257.82044444 528.9984 261.5751111 527.7696000000001 265.73937777 527.7696000000001c3.8912 0 7.7824 1.2288 10.51306667 3.6864 2.8672 2.32106667 4.43733333 5.46133333 4.43733333 8.8064 0 3.20853333-1.57013333 6.41706667-4.43733333 8.73813333C270.5863111 553.6426666699999 260.61937777 553.6426666699999 255.0215111 549.00053333zM528.70257777 343.31306667C593.07804444 416.01706667 633.15057777 524.62933333 633.15057777 593.78346667c0 112.77653333-110.72853333 204.52693333-246.71573333 204.52693333-136.05546667 0-246.71573333-91.68213333-246.71573334-204.52693333 0-69.2224 40.1408-178.03946667 104.72106667-250.6752-131.41333333-47.104-220.84266667-156.8768-220.84266667-278.45973334 0-92.43306667 276.82133333-99.5328 361.60853334-99.5328 84.85546667 0 361.6768 7.09973333 361.6768 99.5328C746.88284444 185.95839999999998 658.54577777 295.73119999999994 528.70257777 343.31306667zM199.86204444 593.78346667c0 85.4016 83.7632 154.76053333 186.64106666 154.76053333s186.64106667-69.35893333 186.64106667-154.76053333c0-96.52906667-95.98293333-276.34346667-186.64106667-276.34346667C295.7767111 317.44000000000005 199.86204444 497.2544 199.86204444 593.78346667zM385.20604444 14.882133329999988c-208.82773333 0-301.53386667 36.0448-301.53386667 49.7664 0 105.54026667 80.00853333 201.38666667 196.8128 237.7728 31.81226667-24.3712 68.06186667-37.13706667 106.01813333-37.13706666 37.0688 0 73.1136 12.9024 105.33546667 37.81973333 115.64373333-36.864 194.90133333-132.9152 194.90133333-238.45546667C686.7399111 50.92693333 594.03377777 14.882133329999988 385.20604444 14.882133329999988zM778.42204444 564.29226667c54.6816 0 99.328-37.0688 99.328-82.3296 0-5.7344 5.39306667-10.37653333 12.42453333-10.37653334 6.82666667 0 12.35626667 4.64213333 12.35626667 10.37653334 0 56.7296-55.63733333 103.0144-124.04053334 103.0144-6.9632 0-12.4928-4.64213333-12.4928-10.30826667C765.9975111 568.86613333 771.5271111 564.29226667 778.42204444 564.29226667zM876.93084444 449.536c-2.18453333-1.97973333-3.6864-4.64213333-3.6864-7.23626667 0-2.8672 1.4336-5.46133333 3.6864-7.3728 2.38933333-1.97973333 5.66613333-3.00373333 8.87466666-3.00373333 3.41333333 0 6.48533333 1.024 8.87466667 3.00373333 2.32106667 1.97973333 3.61813333 4.64213333 3.61813333 7.3728 0 2.59413333-1.29706667 5.25653333-3.61813333 7.23626667C889.96977777 453.4272 881.64124444 453.4272 876.93084444 449.536zM903.4183111 278.80106666999995c53.4528 60.27946667 86.76693333 150.528 86.76693334 207.872 0 93.5936-91.7504 169.64266667-204.66346667 169.64266666-112.77653333 0-204.66346667-76.04906667-204.66346667-169.64266666 0-57.27573333 33.24586667-147.38773333 86.69866667-207.6672-107.7248-39.5264-181.0432-130.73066667-181.0432-231.35573334 0-76.66346667 229.7856-82.5344 300.16853333-82.5344s299.89546667 5.87093333 299.89546667 82.5344C1086.57777777 148.54826666999998 1012.44017777 239.68426667000006 903.4183111 278.80106666999995zM630.76124444 486.67306667c0 70.92906667 69.49546667 128.4096 154.8288 128.4096s154.89706667-57.5488 154.89706666-128.4096c0-80.00853333-79.6672-229.10293333-154.89706666-229.10293334S630.76124444 406.66453333 630.76124444 486.67306667zM786.6823111 6.417066670000054c-13.9264 0-27.17013333 0.2048-39.79946666 0.6144-145.33973333 4.16426667-210.46613333 30.17386667-210.46613334 40.68693333 0 87.72266667 65.80906667 167.25333333 161.65546667 197.90506667 26.76053333-20.75306667 56.7296-31.40266667 87.4496-31.40266667 31.47093333 0 61.44 10.4448 87.8592 30.72 96.8704-30.1056 163.36213333-109.49973333 163.36213333-197.29066667C1036.81137777 36.317866669999944 959.87484444 6.417066670000054 786.6823111 6.417066670000054z"  horiz-adv-x="1095" />

    
    <glyph glyph-name="home" unicode="&#58999;" d="M224.058247-128.00002900000004c-36.9965 0-80.302481 22.22658-80.302481 85.034591L143.755766 310.07868399999995 70.479752 310.07868399999995c-13.335948 0-28.392663 8.890632-40.294638 23.660552C17.709551 349.226143 10.826481 369.30176400000005 10.826481 390.09437l0 9.320824L482.603556 887.682957C488.052653 893.132054 495.939504 896 505.833917 896c11.184988 0 19.645428-2.867946 25.237923-8.46044 1.720767-1.720767 426.750327-434.350383 475.21861-483.67905l6.596275-6.739673 0-9.320824c0-21.366196-3.584932-37.856884-11.041591-50.189051-9.751016-16.347291-26.241704-25.38132-46.317324-25.38132l-71.125055 0-1.147178-358.206424-0.573589-2.581151c-0.430192-2.007562-5.018905-19.932223-17.207674-38.287076-17.924661-26.95869-43.019186-41.155021-72.702425-41.155021L618.400787-128.00002900000004l0 22.943566c0.143397 90.053496 0.286795 325.942034 0 336.266639-0.143397 5.3057-5.449097 19.071839-11.471783 19.071839L417.787982 250.282015c-4.158521 0-12.618961-7.886851-12.618961-18.354853l0-359.927191L229.650741-128.00002900000004C228.360166-127.856631 226.496001-128.00002900000004 224.058247-128.00002900000004M72.917506 355.965816l116.868789 0 0-398.931253c0-9.751016 0-39.147459 34.415349-39.147459 1.147178 0 1.864165 0 2.150959 0l1.433973 0.143397 1.003781 0L359.281889-81.96949900000004 359.281889 232.21395700000005c0 34.128554 27.388882 64.241985 58.506093 64.241985l189.141022 0c18.211455 0 34.271952-9.320824 45.170146-26.241704 8.46044-13.19255 11.758578-27.962471 12.045372-37.283295 0.286795-11.328386 0.143397-240.047059 0-314.757046l128.340572 0c29.683238 0 41.872008 32.981376 44.739954 42.158802l1.147178 398.07087 116.868789 0c5.162302 0 6.022686 1.433973 7.026467 3.011343 1.290576 2.294357 3.441535 7.169864 4.158521 17.494469-53.630585 54.490969-401.369007 408.538872-459.731703 467.905348L57.430599 381.63392999999996C60.01175 366.29042100000004 69.475971 358.11677499999996 72.917506 355.965816"  horiz-adv-x="1024" />

    
    <glyph glyph-name="dianpu" unicode="&#58946;" d="M853.19465491 271.33589839L853.19465491 271.33589839c-17.47067132 0-31.63401326-14.27616873-31.63401327-31.88615852l0-200.55511c0-13.10962594-10.54303543-23.73605686-23.54866387-23.73605687L225.6112746 15.158573000000047c-13.00464762 0-23.54768305 10.62642998-23.54768305 23.73605687L202.06359155 238.71390509000003c0 17.60998981-14.16236017 31.88615853-31.63401327 31.88615853l0 0c-17.47067132 0-31.63401326-14.27616873-31.63401326-31.88615853l0-199.820257c0-48.32960554 38.86873754-87.50837489 86.8147278-87.50837489l572.40168495 0c47.94697204 0 86.81570957 39.17876839 86.81570957 87.50837489l0 200.55511C884.82866817 257.05972967 870.666308 271.33589839 853.19465491 271.33589839zM782.1287462 610.94605697L232.24359575 610.94605697c-9.91806676 0-18.03284935-8.11478259-18.03284935-18.03284935l0-20.8025298c0-9.91806676 8.11478259-18.03284935 18.03284935-18.03284935l549.88515045 0c9.91806676 0 18.03284935 8.11478259 18.03284935 18.03284935l0 20.8025298C800.16257733 602.83127534 792.04779474 610.94605697 782.1287462 610.94605697zM992.94825658 521.02120195c-0.79764459 6.80695871-8.92518071 24.81528088-15.7625544 36.98107705l-0.25607046-0.19916571c-0.46014218 1.31861577-1.04390399 2.61074078-1.75717225 3.85773471L851.85249373 785.7979793l-3.38483804 5.32940329c-0.7054198 0.94481155-1.35295401 1.87098178-1.97988528 2.76183198-5.80131914 8.23938304-17.87390874 25.38432562-45.18317747 25.38432561L210.4619152 819.27354114c-15.58006741 0-33.28816884-8.8977101-45.1125374-22.66762474l-2.26146471-2.63330633L40.60091293 573.45185913c-1.56291256-3.12974936-2.67255059-6.21436666-3.39661171-9.1734027-0.22663726-0.67206236-0.42285955-1.40985877-0.57787496-2.23497492-43.33770466-137.16346385 65.01146347-248.13416465 172.72585187-252.9347483 66.62833642 0 125.28415216 35.05515216 158.77443012 87.82821776 33.60801171-52.78287571 91.39161856-87.6898801 156.90933516-87.6898801 66.09264913 0 124.31481343 35.52314376 157.78841267 89.08404194 31.23568089-54.1456408 87.4475459-88.73280327 155.08152287-88.73280327 50.40367821 0 92.71219596 21.79639763 121.38717318 70.99526865C980.92275972 417.70710415 1000.93353175 452.90451821 992.94825658 521.02120195zM914.76928063 412.81920077c-19.53787633-28.59845033-46.33696578-38.46648095-74.91677576-38.46648095-62.91482526 0-109.85615675 43.46623126-118.95793857 105.993517 0.08830055 11.7399932-11.68701268 23.29553682-22.53223144 23.29553682l-18.73042068 0c-0.47878254 0-0.95364179-0.02845238-1.42359409-0.07260265l-8.94970884 0c-11.44860271-0.6916845-19.27101303-9.19498743-19.09146946-23.46330769 0.83394544-66.47528263-59.66341887-106.55078902-125.13208016-106.55078903-64.46498334 0-117.74430208 50.50473229-124.833822 115.28661509-0.92224599 8.42383262-7.92248454 14.72649984-16.11477388 14.72649984l-9.5148303 0c-5.2234432 0.3983314-10.64605306 0-15.30633742 0l-5.91022264 0c-9.67278915 0-18.59796984-7.9136543-19.58889427-17.61195239-6.47534314-63.39949558-59.80273639-110.82353384-124.41488669-111.11492435-69.83461268-0.31493687-139.65647088 101.05459568-116.29617986 164.43937418 0.00490602 0.00883024 0.00784847 0.01667871 0.01177366 0.02648979 1.66396664 3.1837107 3.47215778 7.02770914 5.45694812 11.65169265L213.22374718 754.9645540500001l583.78160924 0c0.38950212-0.55040437 0.80156882-1.12827935 1.23816367-1.73068247l125.74233174-219.25119147c4.88201656-5.37747781 10.77065351-22.91290332 11.30732259-24.26683911 0.48172595-1.2165799 0.89575621-1.95241372 1.27838972-2.336029C944.36748563 472.7072943 925.65766885 428.75639368 914.76928063 412.81920077z"  horiz-adv-x="1032" />

    
    <glyph glyph-name="anquan" unicode="&#58944;" d="M891.81752889 715.83935147c-11.46443093 10.57896675-26.47071858 15.86845013-41.40710116 15.86845013-1.77092835 0-2.65639253 0-4.4040192 0-0.88546418 0-10.57896675-0.88546418-25.56195271-0.88546418-25.56195271 0-74.00616391 1.77092835-120.67944675 13.2120576-59.93194382 14.07422009-129.53408853 80.15780978-149.80655787 93.39316907-9.67020089 6.17494755-22.020096 9.69350258-33.48452693 9.69350258-11.44112925 0-22.88225849-3.51855502-33.46122525-9.69350258-2.63309085-1.77092835-74.8683264-76.63925475-145.35593529-93.39316907-46.69658453-11.44112925-96.91172409-13.2120576-121.56491093-13.2120576-15.86845013 0-25.53865102 0.88546418-26.4241152 0.88546418-0.88546418 0-2.65639253 0-3.51855502 0-15.86845013 0-29.96597191-5.28948338-41.40710116-15.86845013-12.32659342-10.57896675-19.36370347-26.4241152-19.36370347-42.29256534l0-146.21809778c0-539.1777792 365.58019698-608.73332053 380.56318294-611.38971306 3.51855502-0.88546418 7.06041173-0.88546418 10.55566506-0.88546418 3.51855502 0 7.08371342 0 10.60226845 0.88546418 15.84514845 2.65639253 383.19627378 72.23523555 383.19627378 611.38971306l0 146.21809778C910.29576818 689.41523627 903.21205475 705.26038471 891.81752889 715.83935147L891.81752889 715.83935147zM756.13179449 507.03291733L503.28516835 262.1554688c-1.77092835-2.65639253-3.51855502-5.31278507-6.17494755-7.08371342-7.06041173-7.03711005-16.73061262-10.55566507-26.4241152-10.55566507-9.71680427 0-19.38700515 3.51855502-27.30957938 10.55566507-1.77092835 1.77092835-4.38071751 4.4040192-5.28948337 7.08371342l-135.66243272 131.25841351c-14.09752178 14.09752178-14.09752178 36.09431609 0 50.19183787 14.07422009 14.12082347 37.86524445 14.12082347 51.96276622 0l116.29872925-111.87140836 233.45962098 225.51374507c15.00628765 14.09752178 37.86524445 14.09752178 51.96276622 0C771.09147875 544.0359992900001 771.09147875 521.13043911 756.13179449 507.03291733L756.13179449 507.03291733z"  horiz-adv-x="1024" />

    
    <glyph glyph-name="aixin2" unicode="&#58882;" d="M707.392 802.645c-77.264 0-149.104-38.759-196.389-102.673-47.258 63.929-119.083 102.673-196.389 102.673-139.281 0-252.596-123.888-252.596-276.181 0-90.853 40.585-154.588 73.209-205.797 94.816-148.743 333.217-333.849 343.314-341.653 9.727-7.52 21.1-11.282 32.447-11.282 11.373 0 22.73 3.761 32.447 11.282 10.11 7.804 248.524 192.91 343.313 341.653 32.64 51.209 73.238 114.944 73.238 205.797-0.001 152.292-113.316 276.181-252.596 276.181zM840.628 355.818c-90.254-141.629-329.64-326.614-329.64-326.614s-239.359 184.986-329.641 326.614c-33.296 52.287-63.11 101.983-63.11 170.647 0 118.568 87.912 214.725 196.376 214.725 80.155 0 148.967-52.588 179.494-127.875l0 0.375 0.082 0c2.274-7.851 8.905-13.575 16.798-13.575 7.921 0 14.552 5.723 16.812 13.575l0.232 0c30.597 75.062 99.313 127.499 179.359 127.499 108.438 0 196.376-96.157 196.376-214.725 0-68.663-29.816-118.359-63.14-170.647z"  horiz-adv-x="1024" />

    
    <glyph glyph-name="weixin1" unicode="&#58924;" d="M692.699238 559.112294c11.619123 0 23.117414-0.831898 34.517504-2.108006C696.19497 701.4500350000001 541.769728 808.7724029999999 365.488742 808.7724029999999 168.405197 808.7724029999999 6.977229 674.464461 6.977229 503.892582c0-98.493235 53.707366-179.306803 143.459123-242.033357l-35.857101-107.840102 125.329408 62.837146c44.84311-8.861798 80.827085-18.002022 125.578138-18.002022 11.250688 0 22.40215 0.561766 33.469645 1.428582-7.001702 23.95351-11.06647 49.054208-11.06647 75.120947C387.891917 432.023757 522.3936 559.112294 692.699238 559.112294zM497.405542 663.593882c30.611456 0 55.425536-24.815206 55.425536-55.427379s-24.814182-55.426355-55.425536-55.426355c-30.613504 0-55.427584 24.815206-55.427584 55.426355S466.794086 663.593882 497.405542 663.593882zM246.567526 551.622656c-30.611456 0-55.427584 24.815206-55.427584 55.426355 0 30.611149 24.81623 55.426355 55.427584 55.426355 30.613504 0 55.428608-24.815206 55.428608-55.426355C301.996134 576.438886 277.18103 551.622656 246.567526 551.622656zM1017.379942 278.544179c0 143.330406-143.423283 260.165325-304.515686 260.165325-170.58089 0-304.924979-116.834918-304.924979-260.165325 0-143.57801 134.34409-260.158157 304.924979-260.158157 35.697459 0 71.712154 9.0112 107.569254 17.99895l98.340659-53.861683-26.969293 89.592525C963.769856 126.10232299999996 1017.379942 197.69077800000002 1017.379942 278.544179zM619.184947 318.72430099999997c-21.799322 0-39.469466 17.673523-39.469466 39.471002 0 21.799526 17.671168 39.468954 39.469466 39.468954s39.469466-17.670451 39.469466-39.468954C658.656563 336.3968 640.983347 318.72430099999997 619.184947 318.72430099999997zM816.270541 316.485325c-21.80137 0-39.47049 17.672499-39.47049 39.468954 0 21.80055 17.670144 39.468954 39.47049 39.468954 21.798298 0 39.469466-17.669427 39.469466-39.468954C855.741133 334.157824 838.068941 316.485325 816.270541 316.485325z"  horiz-adv-x="1024" />

    
    <glyph glyph-name="gou1" unicode="&#58888;" d="M506.0096 886.61447111C228.71552 886.61447111 3.92704 661.83623111 3.92704 384.53703111c0-277.2736 224.78848-502.07232 502.07232-502.07232s502.07232 224.79872 502.07232 502.07232c0 277.2992-224.78848 502.07744-502.0672 502.07744z m269.12256-369.54112l-312.40704-312.40192a33.4592 33.4592 0 0 0-47.32928 0l-156.20096 156.20096a33.46432 33.46432 0 0 0 0 47.32928 33.46944 33.46944 0 0 0 47.3344 0l132.53632-132.5312 288.73216 288.73728a33.46944 33.46944 0 1 0 47.3344-47.3344z m0 0"  horiz-adv-x="1024" />

    
    <glyph glyph-name="nv" unicode="&#58925;" d="M887.68598844 764.67752625C824.33618562 826.82936812 740.58043625 861.05585812 651.83656813 861.05585812c-91.18039969 0-176.56050281-35.83730812-240.41114813-100.91975437-120.34432031-122.65902469-127.49147813-314.71180313-22.87631719-445.7497875L285.55152781 209.39214000000004 103.12981531 388.36886906a40.6088475 40.6088475 0 0 1-56.87946-57.97589812l182.4217125-178.98349781-127.5456225-130.00922626a40.6088475 40.6088475 0 0 1 28.98794906-69.0485775 40.48025344 40.48025344 0 0 1 28.98794907 12.1691175L286.65473469 94.53001405999998l182.42171343-178.97672906a40.48025344 40.48025344 0 0 1 28.43972907-11.62089844 40.61561625 40.61561625 0 0 1 28.44649875 69.59679657l-182.42171344 178.97672906 102.93666187 104.91972656c58.64594438-45.29240156 130.19196656-69.93520406 205.35894375-69.93520406 91.1871675 0 176.56727063 35.84407687 240.41114719 100.91975531 130.03629937 132.56758406 127.99232062 346.21750125-4.56172687 476.26733625z m-53.42770782-419.38110844c-48.44635594-49.38712687-113.23777219-76.58151937-182.43524906-76.58151937-67.3362375 0-130.89585281 25.97612625-178.96996125 73.15007156-100.58811656 98.67950063-102.13125281 260.80355719-3.44498344 361.39167375 48.45312375 49.38035906 113.23777219 76.57475062 182.43524907 76.57475062 67.3362375 0 130.89585281-25.97612625 178.9631925-73.136535 100.58811656-98.67950063 102.13802062-260.80355719 3.45175218-361.39844156z"  horiz-adv-x="1024" />

    
    <glyph glyph-name="nan" unicode="&#58920;" d="M992.84559688 823.46772a41.47378781 41.47378781 0 0 1-0.73153219 7.38982594l-0.04064063 0.27771094a40.55260031 40.55260031 0 0 1-2.14040812 7.13243531c-0.06096094 0.14901563-0.10160156 0.29803125-0.1625625 0.44027344a40.38326438 40.38326438 0 0 1-3.53573719 6.65829374c-0.08128125 0.12192187-0.14224219 0.25061719-0.22352344 0.37254a40.61356125 40.61356125 0 0 1-5.11394906 6.21802032l-0.03386719 0.04064062-0.108375 0.08805469a40.98610031 40.98610031 0 0 1-6.10964531 4.95816c-0.18965625 0.12192187-0.38608594 0.23029688-0.57574219 0.34544531a40.43067844 40.43067844 0 0 1-6.4686375 3.37317375c-0.21675 0.08805469-0.4335 0.15578906-0.65702437 0.23707125a40.20038063 40.20038063 0 0 1-6.92923125 2.02525875l-0.56219532 0.08805469a40.97255344 40.97255344 0 0 1-7.22726343 0.67734469H533.4775025a40.640655 40.640655 0 0 1 0-81.28131h321.12213375l-226.57165031-228.1701825c-63.14880375 52.37903063-143.98306594 83.99746031-231.67882594 83.99746031l-4.87687875-0.03386719c-97.2937275-1.28018063-188.26783312-40.3697175-256.15804688-110.07521343C67.41724719 458.52141375 30.7322825 366.55838530999995 32.01246312 269.25788437999995c2.60777531-198.22479375 165.94934062-359.48013844 364.12671938-359.4801375l4.89719906 0.03386718c97.2937275 1.27340719 188.26783312 40.35617063 256.16482031 110.05489313s104.58195187 161.66852438 103.30177125 258.948705c-1.06343062 81.48451313-29.33577938 156.69004406-75.97770375 217.04818969l227.05933782 228.67819125V404.42192906a40.640655 40.640655 0 0 1 81.28131 0V823.15614188l-0.00677344 0.08805468-0.01354688 0.22352344zM598.97669094 76.58054062999997c-52.74479625-54.14689875-123.42566812-84.51224156-199.01051344-85.50116438l-3.826995-0.02032031c-153.94002656 0-280.82692406 125.28159188-282.85218281 279.2690325-0.99569625 75.57807094 27.50694937 147.03111563 80.25174562 201.17801437 52.74479625 54.15367219 123.42566812 84.519015 199.01051344 85.51471125l3.80667469 0.02709375c153.96034687 0 280.86079125-125.28836531 282.8792775-279.29612625 0.98892281-75.57807094-27.51372281-147.02434219-80.25852-201.17124093z"  horiz-adv-x="1025" />

    
    <glyph glyph-name="send" unicode="&#58914;" d="M0 349.86666667l281.6-166.4 582.4 531.2L384 170.66666667000004l384-128 256 832zM384-110.93333332999998L512 42.66666667000004l-128 64z"  horiz-adv-x="1024" />

    
    <glyph glyph-name="shouhuodizhi" unicode="&#58917;" d="M218.1 153.5C83.5 127.9 0 86.9 0 25.5 0-70 227.6-128 512.1-128s512.1 58 512.1 153.5c0 63.1-89.2 105.8-233.3 131.4-20.9 3.4-39.9-8.6-43.7-27.3-3.7-18.7 9.6-35.8 30.4-39.1 108.1-18.9 172.7-49.6 172.7-64.8 0-3.4-5.7-8.6-20.9-18.9-20.8-11.9-51.2-23.8-91.1-34.1-85.3-22.3-201-34.1-324.4-34.1S273-49.5 189.5-27.3c-39.9 10.3-70.1 22.1-91.1 34.1-17.1 10.3-22.8 15.4-22.8 18.9 0 13.7 58.8 42.7 157.5 61.4 20.8 3.4 34.1 22.1 28.4 41-1.6 18.7-22.4 30.5-43.4 25.4zM514 895.7C288.3 895.7 146.9 733.2 146.9 530.1S459 18.2 514 18.2c54.9 0 367.1 308.8 367.1 511.8S739.7 895.7 514 895.7z m0-219.4c81 0 146.8-65.5 146.8-146.2S595 383.8 514 383.8 367.2 449.3 367.2 530c-0.1 80.9 65.7 146.3 146.8 146.3z"  horiz-adv-x="1024" />

    
    <glyph glyph-name="dizhi" unicode="&#58942;" d="M512-116.79999999999995c-253.6 0-511.2 54.4-511.2 158.4 0 92.8 198.4 131.2 283.2 143.2h3.2c12 0 22.4-8.8 24-20.8 0.8-6.4-0.8-12.8-4.8-17.6-4-4.8-9.6-8.8-16-9.6-176.8-25.6-242.4-72-242.4-96 0-44.8 180.8-110.4 463.2-110.4s463.2 65.6 463.2 110.4c0 24-66.4 70.4-244.8 96-6.4 0.8-12 4-16 9.6-4 4.8-5.6 11.2-4.8 17.6 1.6 12 12 20.8 24 20.8h3.2c85.6-12 285.6-50.4 285.6-143.2 0.8-103.2-256-158.4-509.6-158.4z m-16.8 169.6c-12 11.2-288.8 272.8-288.8 529.6 0 168 136.8 304.8 304.8 304.8S816 750.4 816 582.4c0-249.6-276.8-517.6-288.8-528.8l-16-16-16 15.2zM512 839.2c-141.6 0-256.8-115.2-256.8-256.8 0-200.8 196-416 256.8-477.6 61.6 63.2 257.6 282.4 257.6 477.6C768.8 723.2 653.6 839.2 512 839.2z m0-392.8c-80 0-144.8 64.8-144.8 144.8S432 736 512 736c80 0 144.8-64.8 144.8-144.8 0-80-64.8-144.8-144.8-144.8zM512 688c-53.6 0-96.8-43.2-96.8-96.8S458.4 494.4 512 494.4c53.6 0 96.8 43.2 96.8 96.8S564.8 688 512 688z"  horiz-adv-x="1024" />

    
    <glyph glyph-name="suo" unicode="&#58987;" d="M798.788267 532.206933H755.712V626.312533c0 0.443733 0.3072 0.8192 0.3072 1.3312v0.1024A243.712 243.712 0 0 1 512.273067 871.492267H512a243.712 243.712 0 0 1-243.746133-243.746134h0.2048v-95.5392H229.2736c-76.322133 0-155.2384-58.026667-155.2384-136.362666V48.128c0-89.053867 63.351467-151.586133 147.1488-151.586133h570.197333c93.866667 0 158.583467 52.667733 158.583467 146.397866v333.175467c0 87.722667-57.582933 156.091733-151.176533 156.091733zM318.0544 627.746133h0.2048a195.072 195.072 0 0 0 193.8432 194.525867 195.242667 195.242667 0 0 0 193.9456-194.525867h0.2048v-95.5392H318.0544V627.746133z m584.4992-585.147733a96.597333 96.597333 0 0 0-96.529067-96.597333H218.760533a96.597333 96.597333 0 0 0-96.494933 96.597333V384.341333a96.529067 96.529067 0 0 0 96.494933 96.5632h587.264a96.5632 96.5632 0 0 0 96.529067-96.5632v-341.742933zM516.676267 381.7472h-9.3184a114.7904 114.7904 0 0 1-114.824534-114.756267v-9.3184a114.688 114.688 0 0 1 95.163734-112.878933v-80.7936c0-8.942933 9.489067-21.060267 26.3168-21.060267 15.1552 0 23.6544 12.117333 23.6544 20.923734v81.066666a114.688 114.688 0 0 1 93.764266 112.7424v9.3184a114.824533 114.824533 0 0 1-114.756266 114.756267z m67.9936-122.333867a69.870933 69.870933 0 0 0-69.802667-69.802666h-5.7344a69.870933 69.870933 0 0 0-69.802667 69.802666v5.7344c0 38.536533 31.300267 69.870933 69.802667 69.870934h5.7344c38.5024 0 69.802667-31.3344 69.802667-69.870934v-5.7344z"  horiz-adv-x="1024" />

    
    <glyph glyph-name="xiaoxi1" unicode="&#58923;" d="M797.217 721.669h-573.888c-45.598 0-78.696-35.256-78.696-83.821v-421.086c0-46.947 31.567-78.515 78.696-78.515h168.182l100.639-97.762c5.396-5.396 12.502-8.094 19.607-8.094 7.194 0 14.3 2.788 19.786 8.184l98.751 97.582h166.924c46.947 0 78.516 31.568 78.516 78.516v421.176c0 48.565-33.008 83.821-78.516 83.821zM819.971 216.762c0-16.189-6.565-22.754-22.755-22.754h-177.895c-0.193 0.005-0.42 0.008-0.649 0.008-7.72 0-14.709-3.13-19.766-8.191l-87.329-86.069-89.037 86.25c-5.666 5.575-13.042 8.274-20.416 8.004h-178.793c-16.279 0-22.934 6.565-22.934 22.755v421.084c0 8.455 2.248 28.061 22.934 28.061h573.888c20.505 0 22.754-19.606 22.754-28.060v-421.086zM292.311 432.79c0 0 0 0 0 0 0-27.319 22.146-49.464 49.464-49.464 27.319 0 49.465 22.146 49.465 49.464 0 0 0 0 0 0 0 27.319-22.146 49.465-49.465 49.465-27.319 0-49.464-22.146-49.464-49.464zM468.587 432.79c0 0 0 0 0 0 0-27.319 22.147-49.465 49.465-49.465 27.319 0 49.465 22.147 49.465 49.465 0 0 0 0 0 0 0 0 0 0 0 0 0 27.319-22.147 49.465-49.465 49.465-27.319 0-49.465-22.147-49.465-49.465s0 0 0 0zM643.695 433.421c0-27.319 22.146-49.465 49.464-49.465s49.465 22.146 49.465 49.465c0 27.319-22.146 49.464-49.465 49.464-27.319 0-49.464-22.146-49.464-49.465 0 0 0 0 0 0z"  horiz-adv-x="1024" />

    
    <glyph glyph-name="arrow" unicode="&#58908;" d="M712.44094599 885.77369L256.091884 384.684524 712.440946-115.76549899999998a31.318073 31.318073 0 1 1 46.657538 41.544383L344.293803 384.684524 756.541906 841.672731a31.318073 31.318073 0 0 1-46.018393 42.183526z"  horiz-adv-x="1024" />

    
    <glyph glyph-name="close" unicode="&#58880;" d="M104.67328 837.08814222l860.41486222-860.41486222-45.76142222-45.76142222-860.41486222 860.41486222zM919.32672 837.08814222l45.76142222-45.76142222-860.41486222-860.41486222-45.76142222 45.76142222z"  horiz-adv-x="1024" />

    
    <glyph glyph-name="shouji" unicode="&#58994;" d="M708.928 896H315.072C247.168 896 192 843.84 192 779.648v-791.296C192-75.84 247.168-128 315.072-128h393.856C776.832-128 832-75.84 832-11.648V779.648C832 843.84 776.832 896 708.928 896zM512-81.472c-40.832 0-73.856 31.232-73.856 69.824 0 38.656 33.024 69.824 73.856 69.824 40.832 0 73.856-31.168 73.856-69.76 0-38.656-33.024-69.888-73.856-69.888z m221.568 186.24H290.432V756.288h443.136v-651.648z"  horiz-adv-x="1024" />

    
    <glyph glyph-name="wushuju" unicode="&#58919;" d="M909.016 75.172H841a30 30 0 0 0 0 60h38.016a20 20 0 0 1 20 20V750.815a20 20 0 0 1-20 20H352a20 20 0 0 1-20-20v-28h370.016a50 50 0 0 0 50-50v-223.36a29.989 29.989 0 1 0-59.507-5.283h-0.493V642.815a20 20 0 0 1-20 20H145a20 20 0 0 1-20-20v-625.643a20 20 0 0 1 20-20h337a30 30 0 0 0 0-60H115a50 50 0 0 0-50 50V672.815a50 50 0 0 0 50 50h157v58a50 50 0 0 0 50 50h587.016a50 50 0 0 0 50-50v-655.643a50 50 0 0 0-50-50z m-663.037 484H572.74a29.979 29.979 0 1 0 0-59.957H245.979a29.979 29.979 0 1 0 0 59.957z m0-290.043h74.912a29.979 29.979 0 0 0 29.979-29.978 29.979 29.979 0 0 0-29.979-29.979h-74.912A29.979 29.979 0 0 0 216 239.151a29.979 29.979 0 0 0 29.979 29.978zM216 384.193a29.979 29.979 0 0 0 29.979 29.979h140.935a29.979 29.979 0 0 0 29.979-29.979v-0.042a29.979 29.979 0 0 0-29.979-29.979H245.979A29.979 29.979 0 0 0 216 384.151v0.042z m163-177.521c0 107.419 87.081 194.5 194.5 194.5S768 314.091 768 206.672a193.618 193.618 0 0 0-37.9-115.356l84.115-84.115a30 30 0 1 0-42.425-42.429l-84.3 84.3a193.6 193.6 0 0 0-113.99-36.9c-107.419 0-194.5 87.081-194.5 194.5z m194.5-134.5a134.5 134.5 0 1 1-134.5 134.5 134.5 134.5 0 0 1 134.5-134.5z"  horiz-adv-x="1024" />

    
    <glyph glyph-name="collect1" unicode="&#58904;" d="M772.43733333-93.86666666999997c-12.51555555 0-24.68977778 3.072-36.06755555 8.98844445l-210.48888889 110.592c-8.53333333 4.43733333-19.22844445 4.43733333-27.648 0l-210.48888889-110.592c-32.19911111-16.83911111-72.47644445-8.53333333-95.57333333 18.88711111-14.67733333 17.408-20.93511111 40.39111111-16.95288889 62.91911111l40.16355555 233.92711111c1.59288889 9.67111111-1.59288889 19.56977778-8.53333333 26.39644444L36.63644445 422.912c-21.27644445 20.70755555-28.78577778 51.2-19.68355556 79.53066667 9.216 28.33066667 33.22311111 48.46933333 62.57777778 52.79288888l235.17866666 34.13333334c9.67111111 1.36533333 18.09066667 7.50933333 22.41422222 16.27022222L442.48177778 818.63111111c13.19822222 26.624 39.82222222 43.23555555 69.51822222 43.23555556s56.32-16.49777778 69.51822222-43.23555556l105.24444445-212.992c4.32355555-8.76088889 12.74311111-14.90488889 22.41422222-16.27022222l235.17866666-34.13333334c29.46844445-4.32355555 53.47555555-24.46222222 62.57777778-52.79288888 9.216-28.33066667 1.70666667-58.82311111-19.68355555-79.53066667L817.26577778 257.25155555000003c-7.05422222-6.82666667-10.24-16.72533333-8.53333333-26.39644444L848.78222222-3.0720000000000027c3.86844445-22.64177778-2.27555555-45.51111111-16.95288889-62.91911111C816.92444445-83.74044445000004 795.30666667-93.86666666999997 772.43733333-93.86666666999997zM512 76.91377778000003c12.51555555 0 25.03111111-3.072 36.06755555-8.87466667l210.4888889-110.592c12.62933333-6.59911111 27.87555555-3.18577778 36.75022222 7.39555556 3.98222222 4.66488889 8.30577778 12.74311111 6.37155555 24.00711111l-40.16355555 233.92711111a77.6192 77.6192 0 0 0 22.30044444 68.72177778l170.09777778 165.66044444c8.30577778 8.07822222 11.15022222 19.456 7.50933333 30.49244444-3.64088889 11.03644445-12.62933333 18.54577778-24.00711111 20.25244445l-235.17866666 34.13333333c-25.25866667 3.64088889-47.104 19.56977778-58.48177778 42.43911112l-105.24444445 212.992c-5.12 10.35377778-15.13244445 16.61155555-26.73777777 16.61155555s-21.504-6.144-26.73777778-16.61155555l-105.24444445-212.992c-11.37777778-22.86933333-33.10933333-38.68444445-58.368-42.43911112L86.47111111 508.01777778c-11.49155555-1.70666667-20.48-9.216-24.00711111-20.25244445-3.64088889-11.03644445-0.79644445-22.41422222 7.50933333-30.49244444L240.07111111 291.49866667000003c18.31822222-17.86311111 26.624-43.46311111 22.30044444-68.72177778l-40.16355555-233.92711111c-1.47911111-8.87466667 0.79644445-17.408 6.37155555-24.00711111 8.87466667-10.58133333 24.12088889-13.99466667 36.75022223-7.39555556l210.48888889 110.592c11.15022222 5.80266667 23.66577778 8.87466667 36.18133333 8.87466667z"  horiz-adv-x="1024" />

    
    <glyph glyph-name="pinglun1" unicode="&#58993;" d="M273.67670922 521.3467234c-33.23279433 0-60.07466667-27.88765958-60.07466666-62.28243971s26.95807093-62.3986383 60.07466666-62.3986383c33.23279433 0 60.07466667 27.88765958 60.07466667 62.3986383 0 34.39478014-26.95807093 62.28243972-60.07466667 62.28243971zM513.97537588 521.3467234c-33.23279433 0-60.07466667-27.88765958-60.07466666-62.28243971s26.95807093-62.3986383 60.07466666-62.3986383c33.23279433 0 60.07466667 27.88765958 60.07466667 62.3986383 0.11619858 34.39478014-26.84187234 62.28243972-60.07466667 62.28243971zM754.39024114 521.3467234c-33.23279433 0-60.07466667-27.88765958-60.07466668-62.28243971s26.95807093-62.3986383 60.07466668-62.3986383c33.23279433 0 60.07466667 27.88765958 60.07466666 62.3986383 0 34.39478014-26.84187234 62.28243972-60.07466666 62.28243971zM874.65577306 832.99131915H153.41117731c-66.34939007 0-120.14933333-55.77531915-120.14933334-124.68107801v-467.46689362c0-68.90575886 54.96192908-132.3501844 122.9380993-132.3501844h183.12896453c31.95460993-34.0461844 164.07239716-170.81191489 164.07239717-170.8119149 5.80992908-6.15852482 15.33821277-6.15852482 21.26434042 0 0 0 96.79341844 109.69146099 159.77304964 170.8119149h187.42831206c67.85997163 0 122.93809929 63.44442554 122.9380993 132.3501844V708.4264397100001c0 68.78956029-53.79994326 124.56487943-120.14933333 124.56487944z m60.65565957-592.3803688c0-34.51097872-28.93344681-70.64873759-62.86343263-70.64873759H687.8084539c-22.31012766 0-42.41248227-23.00731915-42.41248227-23.00731915L515.71835461 12.513134759999957 386.15693617 146.95489361s-24.63409929 23.00731915-45.89843971 23.00731915H155.73514893c-34.0461844 0-62.86343263 36.13775887-62.86343262 70.64873759V708.77503546c0 34.51097872 26.95807093 62.3986383 60.19086526 62.39863829h722.17418438c33.23279433 0 60.19086525-28.00385816 60.19086525-62.39863829v-468.16408511z"  horiz-adv-x="1024" />

    
    <glyph glyph-name="xiangji" unicode="&#59091;" d="M904.15407408-43.804444450000005H119.84592592c-58.82311111 0-106.95111111 48.128-106.95111111 106.95111112V562.25185186c0 58.82311111 48.128 106.95111111 106.95111111 106.9511111h139.03644445l40.99792593 83.77837037c17.82518519 35.65037037 55.25807408 58.82311111 96.256 58.82311112h233.50992592c40.99792592 0 76.6482963-23.17274074 96.256-58.82311112l40.99792592-83.77837037H904.15407408c58.82311111 0 106.95111111-48.128 106.95111111-106.9511111v-499.10518519c0-58.82311111-48.128-106.95111111-106.95111111-106.95111112zM119.84592592 597.90222222c-19.6077037 0-35.65037037-16.04266667-35.65037037-35.65037036v-499.10518519c0-19.6077037 16.04266667-35.65037037 35.65037037-35.65037037h784.30814816c19.6077037 0 35.65037037 16.04266667 35.65037037 35.65037037V562.25185186c0 19.6077037-16.04266667 35.65037037-35.65037037 35.65037036H743.72740741c-14.26014814 0-26.73777778 7.13007408-32.08533333 19.6077037l-51.69303704 103.38607408c-5.34755555 12.47762963-17.82518519 19.6077037-32.08533334 19.6077037H396.1362963c-14.26014814 0-24.95525926-7.13007408-32.08533334-19.6077037l-51.69303704-103.38607408c-5.34755555-12.47762963-17.82518519-19.6077037-32.08533333-19.6077037H119.84592592z m392.15407408-463.45481481c-108.73362963 0-196.07703704 87.34340741-196.07703704 196.07703704s87.34340741 196.07703704 196.07703704 196.07703703 196.07703704-87.34340741 196.07703704-196.07703703-87.34340741-196.07703704-196.07703704-196.07703704z m0 320.85333333c-69.51822222 0-124.7762963-55.25807408-124.7762963-124.77629629s55.25807408-124.7762963 124.7762963-124.77629631 124.7762963 55.25807408 124.7762963 124.77629631-55.25807408 124.7762963-124.7762963 124.77629629z"  horiz-adv-x="1024" />

    
    <glyph glyph-name="sousuo" unicode="&#58931;" d="M773.216 200.032l179.68-179.68a32 32 0 0 0-45.248-45.248l-179.68 179.68A382.464 382.464 0 0 0 480 64C267.936 64 96 235.936 96 448S267.936 832 480 832s384-171.936 384-384c0-94.528-34.144-181.056-90.784-247.968zM480 128c176.736 0 320 143.264 320 320S656.736 768 480 768 160 624.736 160 448s143.264-320 320-320z"  horiz-adv-x="1024" />

    
    <glyph glyph-name="bianji" unicode="&#58913;" d="M319.73888 403.9168l267.93472 231.63392 162.18112 140.20608 37.76512 32.64512c16.16384 13.97248 29.96224-7.79776 39.59808-18.94912l133.00736-153.8304c18.14016-20.97664-53.76512-68.21888-65.67936-78.5152L547.328 256.86528l-60.2624-52.11136c-25.01632-21.632 11.36128-57.68704 36.20352-36.1984l267.904 231.6544 162.16576 140.22656 37.76 32.65024c29.1584 25.216 31.91296 67.9936 6.76352 97.08032l-127.65184 147.6352c-20.88448 24.15104-38.62016 46.67392-74.31168 46.53568-22.528-0.09216-38.78912-14.80704-54.6304-28.50304l-321.83296-278.2208-135.90016-117.49376c-25.02144-21.62688 11.36128-57.68192 36.20352-36.20352zM490.32192 201.35424l-286.63808-48.65024 31.488-31.488 91.01824 296.93952c9.7024 31.65184-39.72608 45.0816-49.37216 13.60896-30.34112-98.95936-60.68224-197.94944-91.01824-296.93952-6.20544-20.23936 13.30176-34.58048 31.488-31.488l286.66368 48.65024c32.52224 5.51424 18.69824 54.84544-13.62944 49.36704zM525.53728 206.23872C457.61024 284.75392 389.7344 363.264 321.86368 441.7536c-21.632 25.02144-57.68192-11.36128-36.20352-36.20352 67.87584-78.48448 135.75168-156.99968 203.63264-235.50976 21.66272-25.02144 57.72288 11.35616 36.24448 36.1984zM941.58848 295.20384v-188.9024c0-23.52128 2.5088-48.83456-0.896-72.24832-6.8352-47.02208-48.72192-80.98816-95.5136-80.98816H255.24224c-44.40576 0-94.04928-7.02464-132.59776 19.0208-46.50496 31.41632-37.82144 93.40928-37.82144 141.73696v221.76256V573.7984c0 38.78912-4.71552 80.93184 0.896 119.53152 6.9888 48.05632 49.59744 80.98816 96.95744 80.98816H485.1712c33.01888 0 33.01888 51.2 0 51.2H307.23072c-61.60384 0-135.75168 10.49088-193.29536-15.76448-49.13664-22.4256-80.31232-77.70112-80.31232-130.61632V52.5312c0-83.16928 64.86528-150.66624 148.81792-150.66624h595.3536c48.30208 0 96.21504-4.44416 140.5952 18.87232 79.52384 41.7792 74.39872 127.88736 74.39872 203.83744v170.63424c0 33.00864-51.2 33.00864-51.2-0.00512zM741.71904 677.2224l128.34304-141.84448M723.61984 659.11808l128.33792-141.84448c22.1952-24.52992 58.2912 11.79136 36.1984 36.20352l-128.33792 141.84448c-22.1952 24.52992-58.28608-11.79136-36.1984-36.20352z"  horiz-adv-x="1024" />

    
    <glyph glyph-name="bianji1" unicode="&#58897;" d="M259.882667 245.333333a41.301333 41.301333 0 0 0 1.237333 2.901334 13.525333 13.525333 0 0 0 1.237333 1.792l310.144 536.064a128 128 0 1 0 221.696-128l-309.76-535.552a49.578667 49.578667 0 0 0-28.842666-25.429334l-146.602667-81.92a39.466667 39.466667 0 0 0-52.224 30.165334v166.954666a65.408 65.408 0 0 0 3.114667 33.024z m306.901333 445.525334L311.381333 248.277333l147.2-86.186666 256 443.434666-147.797333 85.333334z m21.333333 36.949333l147.797334-85.333333 21.333333 36.949333-147.797333 85.333333-21.333334-36.949333z m21.333334 36.949333l147.797333-85.333333a85.333333 85.333333 0 0 1-147.797333 85.333333zM301.098667 203.776L298.666667 56.576l125.696 76.032-123.306667 71.168zM64-42.666667h896a21.333333 21.333333 0 1 0 0-42.666666h-896a21.333333 21.333333 0 1 0 0 42.666666z"  horiz-adv-x="1024" />

    
    <glyph glyph-name="gongkai" unicode="&#58989;" d="M403.2 371.20000000000005c-35.2 3.2-67.2-16-76.8-48-12.8-32-3.2-70.4 22.4-89.6 9.6-6.4 12.8-16 12.8-25.6v-57.6c0-19.2-3.2-38.4 0-60.8 3.2-16 16-25.6 28.8-25.6 16 0 25.6 9.6 28.8 22.4v112c0 12.8 3.2 22.4 16 28.8 25.6 19.2 35.2 44.8 28.8 76.8 0 38.4-28.8 64-60.8 67.2z m0 0M1008 572.8c-3.2 99.2-44.8 176-121.6 224C800 851.2 691.2 832 620.8 752 576 704 550.4 643.2 550.4 576v-67.2c0-16 0-16-6.4-16h51.2v6.4c0 44.8-3.2 48 3.2 92.8 12.8 134.4 137.6 217.6 249.6 169.6 70.4-32 118.4-108.8 118.4-195.2v-73.6h44.8v22.4c-3.2 28.8-3.2 25.6-3.2 57.6zM707.2 492.8h-9.6H76.8c-35.2-3.2-57.6-28.8-57.6-60.8v-428.8c0-38.4 35.2-64 70.4-64H704c41.6 0 70.4 25.6 70.4 64V425.6v19.2c-12.8 25.6-38.4 44.8-67.2 48z m-19.2-496H99.2c-12.8 0-22.4 9.6-22.4 19.2V416c0 9.6 9.6 19.2 22.4 19.2h588.8c12.8 0 22.4-9.6 22.4-19.2v-400c-3.2-9.6-12.8-19.2-22.4-19.2z"  horiz-adv-x="1024" />

    
    <glyph glyph-name="biaoqing" unicode="&#58901;" d="M188.940554 238.681954c59.066502-118.674899 181.895925-200.320339 323.691656-200.320338 141.795731 0 264.625154 81.64544 323.691657 200.320338H188.940554zM719.997178 398.179573c41.183983 0 74.42018 33.236197 74.42018 74.239549 0 41.003352-33.416828 74.239548-74.42018 74.239548-41.183983 0-74.42018-33.236197-74.42018-74.239548 0-41.003352 33.236197-74.239548 74.42018-74.239549zM305.086611 398.179573c41.183983 0 74.42018 33.236197 74.42018 74.239549 0 41.003352-33.416828 74.239548-74.42018 74.239548-41.183983 0-74.42018-33.236197-74.42018-74.239548 0-41.003352 33.416828-74.239548 74.42018-74.239549zM512.63221 892.38737C232.653378 892.38737 4.696419 664.972306 4.696419 385.715999 4.696419 106.279062 232.472747-120.955371 512.451579-120.955371c279.978832 0 507.75516 227.415064 507.755159 506.67137 0.180632 279.256306-227.595696 506.671371-507.574528 506.671371z m0-947.954137C268.779679-55.566767 70.446287 142.405362 70.446287 385.715999 70.446287 628.846005 268.779679 826.818134 512.63221 826.818134s442.185923-197.972129 442.185924-441.282766c0-243.130005-198.333392-441.102134-442.185924-441.102135z"  horiz-adv-x="1024" />

    
    <glyph glyph-name="shuangjiantouxia" unicode="&#59156;" d="M792.5 449.4L512 168.9 231.5 449.4c-11.7 11.7-30.7 11.7-42.4 0s-11.7-30.7 0-42.4l301.8-301.7c5.9-5.9 13.5-8.8 21.2-8.8 7.7 0 15.4 2.9 21.2 8.8L835 407c11.7 11.7 11.7 30.7 0 42.4-11.8 11.7-30.8 11.7-42.5 0zM490.8 318.6c5.9-5.9 13.5-8.8 21.2-8.8 7.7 0 15.4 2.9 21.2 8.8L835 620.3c11.7 11.7 11.7 30.7 0 42.4s-30.7 11.7-42.4 0L512 382.2 231.5 662.7c-11.7 11.7-30.7 11.7-42.4 0s-11.7-30.7 0-42.4l301.7-301.7z"  horiz-adv-x="1024" />

    
    <glyph glyph-name="fenxiang" unicode="&#59183;" d="M551.6 620V754.6c12.1 56.3 58.2 22 58.2 22L930 500.1c70.4-48.9 4.8-85.7 4.8-85.7L619.5 140.3c-63.1-46.5-67.9 24.5-67.9 24.5V289.6C231.4 389.9 100.4-11.5 100.4-11.5c-12.1-22-19.4 0-19.4 0C-42.8 590.6 551.6 620 551.6 620z"  horiz-adv-x="1024" />

    
    <glyph glyph-name="mima" unicode="&#58927;" d="M808.43536 525.761614H215.56464A127.218476 127.218476 0 0 1 88.889833 399.086806V-1.053358000000003a126.946642 126.946642 0 0 1 126.674807-126.402973h592.87072A126.946642 126.946642 0 0 1 935.110167-1.053358000000003V399.086806a127.218476 127.218476 0 0 1-126.674807 126.674808z m-244.650916-347.947969v-131.295992h-104.384391v131.567826a105.743563 105.743563 0 1 0 105.199894 0zM790.766127 522.227767h-81.550305v95.142023a197.079904 197.079904 0 0 1-394.159809 0v-95.142023h-81.550306v95.142023a278.63021 278.63021 0 0 0 557.26042 0z"  horiz-adv-x="1024" />

    
    <glyph glyph-name="ziyuanxhdpi" unicode="&#58952;" d="M3.303226 773.649021h1017.389347v-52.851394H3.303226zM798.452459 768.892396h-52.851395V790.297211a52.851395 52.851395 0 0 1-52.851395 52.851394H360.578654a52.851395 52.851395 0 0 1-52.851395-52.851394v-21.404815h-52.851395V790.297211a105.702789 105.702789 0 0 0 105.70279 105.702789h332.171015a105.702789 105.702789 0 0 0 105.70279-105.702789zM790.52475-127.995772H281.830076a132.128487 132.128487 0 0 0-132.128487 132.128487l-26.425697 769.516306h826.860069l-26.425697-770.573334a132.128487 132.128487 0 0 0-133.185514-131.071459zM177.184314 720.797627l26.425698-715.872141a79.277092 79.277092 0 0 1 79.277092-79.277092h507.637646a79.277092 79.277092 0 0 1 79.277092 79.277092l26.425697 716.664912zM351.858174 561.714929h48.359026v-477.776608h-48.359026zM513.583441 561.714929h48.359027v-477.776608h-48.359027zM675.572966 561.714929h48.359026v-477.776608h-48.359026z"  horiz-adv-x="1024" />

    
    <glyph glyph-name="cha" unicode="&#58881;" d="M29.69599999 384C29.69599999 650.752 245.76 866.816 512 866.816s482.30400001-216.06400001 482.30400001-482.304V384A481.792 481.792 0 0 0 512-98.30400000999998C245.248-98.30400000999998 29.69599999 117.75999999999999 29.69599999 384z m514.56000001 0l168.448 168.448a21.922909 21.922909 0 0 1 0 31.23200001l-1.02399999 1.02399999a21.922909 21.922909 0 0 1-31.23200001 0L512 415.74400001l-168.448 168.95999999a21.922909 21.922909 0 0 1-31.23200001 0l-1.02399999-1.02400001a21.922909 21.922909 0 0 1 0-31.23199999l168.448-168.96-168.448-168.44800001a21.922909 21.922909 0 0 1 0-31.23199999l1.02400001-1.024a21.922909 21.922909 0 0 1 31.23199999 0L512 351.23199999999997l168.448-168.448a21.922909 21.922909 0 0 1 31.23200001 0l1.02399999 1.024a21.922909 21.922909 0 0 1 0 31.23199999L544.256 384z"  horiz-adv-x="1024" />

    
    <glyph glyph-name="aixin1" unicode="&#59484;" d="M512-5.746939c-13.583673 0-26.122449 4.179592-37.093878 13.061225-8.881633 7.314286-225.697959 175.020408-312.424489 311.379592C133.746939 363.62449 94.040816 424.75102 94.040816 511.477551c0 144.718367 108.146939 262.269388 240.326531 262.269388 67.395918 0 131.657143-30.82449 177.632653-84.636735 45.453061 54.334694 109.191837 84.636735 177.110204 84.636735 132.702041 0 240.326531-117.55102 240.326531-262.269388 0-85.159184-37.093878-143.673469-67.395919-191.216327l-1.044898-1.567346c-86.726531-136.359184-303.542857-304.587755-312.424489-311.379592-10.44898-8.359184-22.987755-13.061224-36.571429-13.061225z"  horiz-adv-x="1024" />

    
    <glyph glyph-name="fenxiang1" unicode="&#59162;" d="M928 345.6c-19.2 0-32-12.8-32-32V32c0-19.2-12.8-32-32-32H160c-19.2 0-32 12.8-32 32V736c0 19.2 12.8 32 32 32h246.4c19.2 0 32 12.8 32 32s-12.8 32-32 32H160C105.6 832 64 790.4 64 736v-704c0-54.4 41.6-96 96-96h704c54.4 0 96 41.6 96 96v281.6c0 16-12.8 32-32 32zM928 832h-288c-19.2 0-32-12.8-32-32s12.8-32 32-32h195.2C672 697.6 352 508.8 352 188.8c0-19.2 12.8-32 32-32s32 12.8 32 32c0 313.6 364.8 492.8 480 534.4V544c0-19.2 12.8-32 32-32s32 12.8 32 32V800c0 19.2-12.8 32-32 32z"  horiz-adv-x="1024" />

    
    <glyph glyph-name="eye" unicode="&#59344;" d="M1006.08 397.312c-88.064 192.512-282.112 316.928-493.568 316.928S106.496 589.8240000000001 18.432 397.312c-3.584-8.192-3.584-17.408 0-25.6 88.064-192.512 282.112-316.928 493.568-316.928s405.504 124.416 493.568 316.928c4.096 8.192 4.096 17.408 0.512 25.6zM512 116.22400000000005c-183.296 0-351.232 104.96-431.616 268.288C161.28 547.8399999999999 329.216 652.8 512 652.8c183.296 0 351.232-104.96 431.616-268.288-80.384-163.84-248.32-268.288-431.616-268.288zM512 537.6c-84.48 0-153.088-68.608-153.088-153.088s68.608-153.088 153.088-153.088 153.088 68.608 153.088 153.088S596.48 537.6 512 537.6z m0-244.736c-50.688 0-91.648 40.96-91.648 91.648 0 50.688 40.96 91.648 91.648 91.648s92.16-40.96 92.16-91.648c0-50.688-41.472-91.648-92.16-91.648z"  horiz-adv-x="1024" />

    
    <glyph glyph-name="cart" unicode="&#58990;" d="M951.61409361 624.15922874a113.57249362 113.57249362 0 0 0 21.19462128-93.65605747L941.24917978 232.47705000999997c-12.06141276-53.31190958-55.91475745-88.61303829-106.74001703-88.6130383H350.96038618c-50.96469787 0-95.70115213 36.90466914-106.29846278 87.59049041L185.9584 724.09000851c-3.48595744 15.94244576-18.59177341 28.21301597-35.74268405 28.21301597H81.4726351C61.88155424 752.30302448 45.75319148 768.57082553 45.75319148 788.60346063 45.75319148 808.70581596 61.88155424 825.55460957 81.4726351 825.55460957h68.74308085c50.94145852 0 95.70115213-36.92790958 106.29846277-87.59049042l58.7035234-492.63550638c3.48595744-15.94244576 18.59177341-28.21301597 35.74268406-28.21301597h483.66497552a36.25395745 36.25395745 0 0 1 35.71944361 29.23556385l31.55953511 298.02612125c3.0444032 13.29311809 0.55775319 25.09889362-6.53036065 34.27858193a36.34691595 36.34691595 0 0 1-28.74752871 14.33890533H383.98402233c-19.6143202 0-35.74268405 16.384-35.74268296 36.32367659 0 19.96291595 16.12836276 36.34691595 35.74268296 36.34691595h482.52622978c33.23279469 0 64.46697342-15.33821277 85.1038415-41.50613296zM789.42411384 6.912362759999951a61.98032341 61.98032341 0 1 0 123.93740636 0 61.98032341 61.98032341 0 0 0-123.93740636 0z m-495.77286809 0a61.98032341 61.98032341 0 1 0 123.93740637 0 61.98032341 61.98032341 0 0 0-123.93740637 0z"  horiz-adv-x="1024" />

    
    <glyph glyph-name="caidan" unicode="&#58887;" d="M381.01333333 824.608H167.92533333c-52.81066667 0-95.78666667-42.96533333-95.78666666-95.78666667V515.73333333c0-52.81066667 42.96533333-95.78666667 95.78666666-95.78666666H381.01333333c52.81066667 0 95.78666667 42.96533333 95.78666667 95.78666666V728.832c0 52.81066667-42.96533333 95.776-95.78666667 95.776z m31.92533334-308.864c0-17.6-14.32533333-31.92533333-31.92533334-31.92533333H167.92533333c-17.6 0-31.92533333 14.32533333-31.92533333 31.92533333V728.832c0 17.6 14.32533333 31.92533333 31.92533333 31.92533333H381.01333333c17.6 0 31.92533333-14.32533333 31.92533334-31.92533333v-213.088zM381.01333333 346.304H167.92533333c-52.81066667 0-95.78666667-42.96533333-95.78666666-95.78666667v-213.088c0-52.81066667 42.96533333-95.78666667 95.78666666-95.78666666H381.01333333c52.81066667 0 95.78666667 42.96533333 95.78666667 95.78666666V250.51733333000004c0 52.81066667-42.96533333 95.78666667-95.78666667 95.78666667z m31.92533334-308.87466667c0-17.6-14.32533333-31.92533333-31.92533334-31.92533333H167.92533333c-17.6 0-31.92533333 14.32533333-31.92533333 31.92533333V250.51733333000004c0 17.6 14.32533333 31.92533333 31.92533333 31.92533334H381.01333333c17.6 0 31.92533333-14.32533333 31.92533334-31.92533334v-213.088zM859.264 824.608H646.176c-52.81066667 0-95.78666667-42.96533333-95.78666667-95.78666667V515.73333333c0-52.81066667 42.96533333-95.78666667 95.78666667-95.78666666h213.088c52.81066667 0 95.78666667 42.96533333 95.78666667 95.78666666V728.832c0 52.81066667-42.96533333 95.776-95.78666667 95.776z m31.92533333-308.864c0-17.6-14.32533333-31.92533333-31.92533333-31.92533333H646.176c-17.6 0-31.92533333 14.32533333-31.92533333 31.92533333V728.832c0 17.6 14.32533333 31.92533333 31.92533333 31.92533333h213.088c17.6 0 31.92533333-14.32533333 31.92533333-31.92533333v-213.088zM859.264 346.304H646.176c-52.81066667 0-95.78666667-42.96533333-95.78666667-95.78666667v-213.088c0-52.81066667 42.96533333-95.78666667 95.78666667-95.78666666h213.088c52.81066667 0 95.78666667 42.96533333 95.78666667 95.78666666V250.51733333000004c0 52.81066667-42.96533333 95.78666667-95.78666667 95.78666667z m31.92533333-308.87466667c0-17.6-14.32533333-31.92533333-31.92533333-31.92533333H646.176c-17.6 0-31.92533333 14.32533333-31.92533333 31.92533333V250.51733333000004c0 17.6 14.32533333 31.92533333 31.92533333 31.92533334h213.088c17.6 0 31.92533333-14.32533333 31.92533333-31.92533334v-213.088z"  horiz-adv-x="1024" />

    
    <glyph glyph-name="zh1" unicode="&#58893;" d="M391.136179 307.27901299999996C191.832264 307.27901299999996 42.993669 178.13212099999998 42.993669-9.407918999999993v-20.203177C42.993669-127.64338899999996 202.487948-127.64338899999996 404.434473-127.64338899999996h214.477609c193.93345 0 361.440804 0 361.440805 98.032293v20.203177c0 187.54004-148.838595 316.686931-348.142511 316.686932H391.136179z m109.796169 49.357128c157.874615 0 286.339543 120.87808 286.339543 269.546185 0 148.582859-128.464927 269.460939-286.339543 269.460939-157.78937 0-286.254297-120.87808-286.254297-269.460939 0-148.668104 128.464927-269.546185 286.254297-269.546185z"  horiz-adv-x="1024" />

    
    <glyph glyph-name="gou" unicode="&#58932;" d="M811.24864 523.58656a35.83488 35.83488 0 0 1-50.68288 0l-286.01344-286.00832-170.15808 170.15808a35.83488 35.83488 0 0 1-50.68288 0 35.83488 35.83488 0 0 1 0-50.68288l195.49696-195.49696 0.00512-0.00512a35.83488 35.83488 0 0 1 50.68288 0l311.35232 311.35232a35.83488 35.83488 0 0 1 0 50.68288zM512 762.88c208.91648 0 378.88-169.96352 378.88-378.88s-169.96352-378.88-378.88-378.88-378.88 169.96352-378.88 378.88 169.96352 378.88 378.88 378.88m0 71.68c-248.83712 0-450.56-201.72288-450.56-450.56s201.72288-450.56 450.56-450.56 450.56 201.72288 450.56 450.56-201.72288 450.56-450.56 450.56z"  horiz-adv-x="1024" />

    
    <glyph glyph-name="arrow_r" unicode="&#59356;" d="M311.55905401-117.77368999999999L767.908116 383.315476 311.559054 883.765499a31.318073 31.318073 0 1 1-46.657538-41.544383L679.706197 383.315476 267.458094-73.672731a31.318073 31.318073 0 0 1 46.018393-42.183526z"  horiz-adv-x="1024" />

    
    <glyph glyph-name="arrow_down-copy" unicode="&#59357;" d="M10.22631 584.44094599L511.315476 128.09188400000005 1011.765499 584.4409459999999a31.318073 31.318073 0 1 1-41.544383 46.657538L511.315476 216.29380300000003 54.327269 628.5419059999999a31.318073 31.318073 0 0 1-42.183526-46.018393z"  horiz-adv-x="1024" />

    
    <glyph glyph-name="jiantouxia" unicode="&#58922;" d="M71.493818 532.410182L449.861818 86.132364a81.454545 81.454545 0 0 1 124.276364 0l378.368 446.277818A51.2 51.2 0 0 1 913.454545 616.727273H110.545455a51.2 51.2 0 0 1-39.051637-84.317091z"  horiz-adv-x="1024" />

    


  </font>
</defs>
</svg>
